<?xml version="1.0" encoding="utf-8"?>
<!-- Generator: Adobe Illustrator 22.0.1, SVG Export Plug-In . SVG Version: 6.00 Build 0)  -->
<svg version="1.1" id="Layer_1" xmlns="http://www.w3.org/2000/svg" xmlns:xlink="http://www.w3.org/1999/xlink" x="0px" y="0px"
	 viewBox="0 0 132.4 132.4" style="enable-background:new 0 0 132.4 132.4;" xml:space="preserve">
<style type="text/css">
	.st0{fill:none;}
	.st1{fill:#FFFFFF;}
</style>
<circle class="st0" cx="66.2" cy="66.2" r="66.2"/>
<g>
	<path class="st1" d="M66.2,52.7c-0.5,0-1.1,0.1-1.6,0.2L34.9,61v20.2c0,1.2,0.8,2.3,1.9,2.6l27.6,8.3c0.6,0.2,1.2,0.3,1.7,0.3
		c0.6,0,1.2-0.1,1.7-0.3l27.6-8.3c1.1-0.3,1.9-1.4,1.9-2.6V61l-29.7-8.1C67.3,52.8,66.7,52.7,66.2,52.7z M83.6,62.5
		c1,0.2,1.8,0.9,2.4,1.8c0.5,0.9,0.7,1.9,0.4,2.9c-0.3,1-0.9,1.8-1.8,2.4c-0.6,0.4-1.3,0.5-2,0.5h-0.2l0,0c-0.3,0-0.6-0.1-0.8-0.1
		l-14.1-3.8c-0.5-0.1-1-0.2-1.6-0.2c-0.6,0-1.1,0.1-1.7,0.2l-13.6,3.8c-0.3,0.1-0.6,0.1-1,0.1h-0.1c-1.7,0-3.2-1.2-3.7-2.8
		c-0.3-1-0.1-2.1,0.4-2.9c0.5-0.9,1.3-1.5,2.3-1.8l14.9-4c0.8-0.2,1.7-0.3,2.5-0.3c0.8,0,1.5,0.1,2.3,0.3L83.6,62.5z"/>
	<path class="st1" d="M19.5,61.8v7.7c0,4.1,3,7.5,7.1,8.1l0.6,0.1V53.6l-0.6,0.1C22.5,54.2,19.5,57.7,19.5,61.8z"/>
	<path class="st1" d="M66.1,45c0.8,0,1.5,0.1,2.3,0.3L97.5,53v-2.6c0-1.2-0.8-2.3-2-2.6l-27.7-7.5c-0.5-0.1-1-0.2-1.6-0.2
		s-1.1,0.1-1.6,0.2l-27.7,7.5c-1.2,0.3-2,1.4-2,2.6V53l28.7-7.6C64.4,45.1,65.2,45,66.1,45z"/>
	<path class="st1" d="M105.8,53.7l-0.6-0.1v24.2l0.6-0.1c4.1-0.6,7.1-4,7.1-8.2v-7.7C112.8,57.7,109.8,54.3,105.8,53.7z"/>
	<path class="st1" d="M66.2,0C29.6,0,0,29.6,0,66.2s29.6,66.2,66.2,66.2s66.2-29.6,66.2-66.2S102.7,0,66.2,0z M104.6,85.4h-0.3
		l-0.1,0.3c-1.3,2.6-3.6,4.5-6.3,5.4l-28.5,8.7c-1,0.3-2,0.4-3,0.5h0c-1,0-2-0.2-3-0.5l-28.5-8.7c-2.8-0.8-5.1-2.8-6.3-5.4l-0.1-0.3
		h-0.3c-8.8-0.1-15.8-7.1-16-15.9v-7.7c0-4.2,1.7-8.3,4.8-11.3c3-3,7-4.7,11.3-4.7h0.3l0.2-0.3c1.3-2.6,3.7-4.5,6.5-5.3l28.5-7.9
		c0.9-0.2,1.8-0.4,2.8-0.4c0,0,0,0,0,0c1,0,1.9,0.1,2.8,0.4l28.5,7.9c2.8,0.8,5.1,2.7,6.5,5.3l0.2,0.3h0.3c4.3,0,8.3,1.7,11.3,4.7
		c3,2.9,4.7,7,4.7,11.3v7.7C120.4,78.3,113.4,85.3,104.6,85.4z"/>
</g>
</svg>
