<?xml version="1.0" encoding="utf-8"?>
<!-- Generator: Adobe Illustrator 22.0.1, SVG Export Plug-In . SVG Version: 6.00 Build 0)  -->
<svg version="1.1" id="Layer_1" xmlns="http://www.w3.org/2000/svg" xmlns:xlink="http://www.w3.org/1999/xlink" x="0px" y="0px"
	 viewBox="0 0 132.4 132.4" style="enable-background:new 0 0 132.4 132.4;" xml:space="preserve">
<style type="text/css">
	.st0{fill:#FFFFFF;}
</style>
<g>
	<path class="st0" d="M82.9,59.5c-0.2-0.7-0.5-0.8-1.2-0.8c-10.7,0-21.4,0-32,0c-0.7,0-1.1,0.2-1.3,0.9
		c-3.9,13.2-7.9,26.3-11.8,39.5c-0.1,0.3-0.1,0.6-0.2,0.9c19.6,8.1,39.1,8.1,58.7,0c-0.1-0.4-0.1-0.6-0.2-0.8
		C90.9,86,86.9,72.7,82.9,59.5z"/>
	<path class="st0" d="M50,50.7c10.5,0,21,0,31.5,0c0.7,0,0.9-0.2,1.1-0.8c2.2-6.3,4.4-12.6,6.7-18.9c0.5-1.4,1-2.9,1.6-4.4
		c-0.5,0-0.8,0-1.1,0c-2.6,0-5.2,0-7.7,0c-0.8,0-1.2,0.2-1.4,1C78,34.9,70.5,39.3,63,37.9c-6.1-1.2-10.1-4.7-12-10.6
		c-0.1-0.3-0.4-0.6-0.6-0.6c-3.1,0-6.2,0-9.4,0c0.1,0.4,0.1,0.6,0.2,0.8c2.6,7.6,5.2,15.1,7.8,22.7C49.1,50.6,49.4,50.7,50,50.7z"/>
	<path class="st0" d="M66.1,0C29.5,0-0.1,29.6-0.1,66.2c0,36.6,29.6,66.2,66.2,66.2c36.6,0,66.2-29.6,66.2-66.2
		C132.3,29.6,102.6,0,66.1,0z M101.7,105.8c-8.4,4-17.3,6.5-26.5,7.6c-1.9,0.2-3.8,0.4-5.7,0.6c-2.2,0-4.5,0-6.7,0
		c-0.4,0-0.7-0.1-1.1-0.1c-3.6-0.4-7.3-0.7-10.9-1.3c-7-1.2-13.6-3.5-20.1-6.4c-2.7-1.2-3.5-2.9-2.7-5.7
		c4.6-15.2,9.1-30.5,13.7-45.7c0.2-0.5,0.2-1.2,0-1.8c-3.3-9.3-6.5-18.5-10-27.7c-1.1-2.9-0.7-5.7,3.1-6.6c6.8,0,13.5,0,20.3,0
		c1.5,0.6,2.7,1.5,3.1,3.3c0.1,0.6,0.1,1.2,0.2,1.8c0.5,3.6,3.3,6.4,6.8,6.7c3.8,0.3,7.1-1.8,8.2-5.4c0.2-0.5,0.3-1,0.3-1.5
		c0-2.3,1.1-3.9,3.2-4.8c6.8,0,13.7,0,20.5,0c3.3,0.8,4,3.2,2.9,6.1c-3.4,9.2-6.7,18.6-10,27.8c-0.3,0.9-0.4,1.7-0.1,2.7
		c4.6,15.1,9.1,30.3,13.7,45.4C104.6,102.9,103.9,104.8,101.7,105.8z"/>
</g>
</svg>
