<svg xmlns="http://www.w3.org/2000/svg" width="127.238" height="180" viewBox="0 0 127.238 180">
  <path id="icon-joggerpants" d="M114.677,26.859V5.309A5.3,5.3,0,0,0,109.369,0H17.927a5.3,5.3,0,0,0-5.309,5.309V26.438C5.8,62.367-5.7,137.6,3.3,175.922A5.3,5.3,0,0,0,8.47,180H31.779a5.373,5.373,0,0,0,4.852-3.129c10.617-23.8,10.16-23.484,27-87.047,17.086,64.441,16.418,63.492,27,87.047A5.3,5.3,0,0,0,95.482,180h23.309a5.3,5.3,0,0,0,5.168-4.078C132.924,137.672,121.357,61.488,114.677,26.859ZM23.2,10.582H104.06V21.621H77.939l-.773-4.359a5.248,5.248,0,0,0-6.117-4.289,5.309,5.309,0,0,0-4.324,6.117l.457,2.531H60.009l.457-2.531A5.283,5.283,0,1,0,50.06,17.262l-.773,4.359H23.236C23.2,11.883,23.2,14.7,23.2,10.582ZM22.322,32.2H29.7c-1.266,10.16-5.625,18.844-11.391,23.238C19.017,50.484,21.83,34.664,22.322,32.2Zm82.582,0c1.371,7.348,2.672,14.66,4.008,23.238C103.146,51.047,98.787,42.363,97.521,32.2ZM28.334,169.418H12.724c-.773-3.8-1.3-7.242-1.582-9.527h21.34C31.5,162.246,29.459,166.887,28.334,169.418Zm86.168,0H98.857c-.492-1.16-2.531-5.625-4.113-9.527h21.34C115.7,162.984,115.17,166.184,114.5,169.418ZM90.877,149.309c-3.621-11.145-8.121-28.652-18.281-66.973-2.426-9.176-15.5-9.211-17.965,0-10.336,38.988-14.59,55.723-18.281,66.973H10.193c-.668-20.988,3.656-62.156,6.223-81.176C30.83,63.914,38.81,47.426,40.322,32.238h7.1L45.6,42.715a5.3,5.3,0,0,0,10.441,1.828l2.145-12.3H69.045l2.145,12.3A5.283,5.283,0,0,0,81.6,42.715L79.8,32.2h7.1C88.416,47.5,96.5,63.914,110.81,68.1c2.707,19.934,6.961,60.434,6.223,81.176H90.877Z" transform="translate(0.004)" fill="#fff"/>
</svg>
