<svg id="icon-email" xmlns="http://www.w3.org/2000/svg" width="39.224" height="27.58" viewBox="0 0 39.224 27.58">
  <g id="Group_9" data-name="Group 9" transform="translate(2.009 15.418)">
    <g id="Group_8" data-name="Group 8">
      <path id="Path_3" data-name="Path 3" d="M49.633,277.251l-3.285,3.3a3.636,3.636,0,0,1-5.037,0l-3.285-3.3-11.8,11.837a3.414,3.414,0,0,0,1.438.324H59.994a3.41,3.41,0,0,0,1.438-.324Z" transform="translate(-26.226 -277.251)" fill="#fff"/>
    </g>
  </g>
  <g id="Group_11" data-name="Group 11" transform="translate(2.009 0)">
    <g id="Group_10" data-name="Group 10">
      <path id="Path_4" data-name="Path 4" d="M60,76H27.666a3.413,3.413,0,0,0-1.438.324l12.608,12.65,0,0v0l4.1,4.113a1.38,1.38,0,0,0,1.783,0l4.1-4.112,0,0,0,0,12.608-12.65A3.411,3.411,0,0,0,60,76Z" transform="translate(-26.228 -76)" fill="#fff"/>
    </g>
  </g>
  <g id="Group_13" data-name="Group 13" transform="translate(0 1.931)">
    <g id="Group_12" data-name="Group 12">
      <path id="Path_5" data-name="Path 5" d="M.367,101.212A3.405,3.405,0,0,0,0,102.728v20.685a3.4,3.4,0,0,0,.367,1.516l11.82-11.858Z" transform="translate(0 -101.212)" fill="#fff"/>
    </g>
  </g>
  <g id="Group_15" data-name="Group 15" transform="translate(27.038 1.931)">
    <g id="Group_14" data-name="Group 14">
      <path id="Path_6" data-name="Path 6" d="M364.752,101.21l-11.819,11.859,11.819,11.858a3.405,3.405,0,0,0,.367-1.516V102.726A3.405,3.405,0,0,0,364.752,101.21Z" transform="translate(-352.933 -101.21)" fill="#fff"/>
    </g>
  </g>
</svg>
