<svg xmlns="http://www.w3.org/2000/svg" width="186.997" height="116.196" viewBox="0 0 186.997 116.196">
  <path id="icon-facemask" d="M171.178,203.075a4.076,4.076,0,0,1-1.263-.181l-24.728-6.678a12.726,12.726,0,0,0-3.2-.406,12.036,12.036,0,0,0-3.384.5l-23.871,6.588a4.362,4.362,0,0,1-1.309.181h0a5.023,5.023,0,0,1-4.828-3.655,4.851,4.851,0,0,1,.5-3.791,4.938,4.938,0,0,1,3.023-2.346l26.082-6.949a14.577,14.577,0,0,1,7.536-.09l26.669,6.994a4.959,4.959,0,0,1,3.068,2.3,4.989,4.989,0,0,1-4.287,7.536Zm-24.051,52.3,50.043-15.3a16.651,16.651,0,0,0,10.018-8.529l.722-1.534h1.67A26.556,26.556,0,0,0,235.8,203.842V190.349a26.04,26.04,0,0,0-7.807-18.5,26.3,26.3,0,0,0-18.591-7.671h-1.624l-.767-1.444a16.868,16.868,0,0,0-10.243-8.348l-50.043-13.9a16.313,16.313,0,0,0-4.422-.587,18.3,18.3,0,0,0-4.422.587l-50.043,13.9a16.34,16.34,0,0,0-10.243,8.348l-.767,1.444H75.2a26.494,26.494,0,0,0-18.591,7.671,25.778,25.778,0,0,0-7.807,18.5v13.492a26.556,26.556,0,0,0,26.218,26.172h1.67l.722,1.534a16.486,16.486,0,0,0,10.018,8.529l50.043,15.3a16.06,16.06,0,0,0,4.828.722A17.624,17.624,0,0,0,147.127,255.374Zm-1.579-82.353,53.383,14.53v36.686a6.525,6.525,0,0,1-4.648,6.272l-48.419,14.575a12,12,0,0,1-7.13,0l-48.419-14.53a6.525,6.525,0,0,1-4.648-6.272V187.552l53.383-14.485a12.831,12.831,0,0,1,3.249-.451A13.35,13.35,0,0,1,145.547,173.022Zm-69.853.857v46.388l-3.068-.451a16.3,16.3,0,0,1-13.9-16.019V190.3a16.255,16.255,0,0,1,13.9-16.019Zm133.208,0,3.069.451a16.3,16.3,0,0,1,13.9,16.019v13.492a16.255,16.255,0,0,1-13.9,16.019l-3.069.451Zm-70.71-10.74-52.48,13.989v-6.814A6.567,6.567,0,0,1,90.54,164l48.554-13.131a12.84,12.84,0,0,1,6.408,0L194.1,164a6.526,6.526,0,0,1,4.783,6.317v6.9l-53.157-14.169a14.577,14.577,0,0,0-7.536.09Z" transform="translate(-48.8 -139.9)" fill="#fff"/>
</svg>
