<svg xmlns="http://www.w3.org/2000/svg" width="132.36" height="132.36" viewBox="0 0 132.36 132.36">
  <path id="icon-volleyball" d="M98.18,32A66.06,66.06,0,0,0,48.663,54.306l-.03.03A66.158,66.158,0,0,0,84.678,162.971a3.8,3.8,0,0,0,.561.118A66.183,66.183,0,1,0,98.18,32Zm51.408,42.249A105.553,105.553,0,0,0,97.5,92.744,94.041,94.041,0,0,1,76.79,79.271a115.923,115.923,0,0,1,57.287-24.995A56.788,56.788,0,0,1,149.588,74.249ZM51.765,65.592A105.134,105.134,0,0,0,93.807,101.46a92.824,92.824,0,0,1-1.3,24.7A116.127,116.127,0,0,1,42.193,89.021,56.666,56.666,0,0,1,51.765,65.592Zm70.494-18.761a126.649,126.649,0,0,0-52.442,25.94A95.309,95.309,0,0,1,58.088,58.058a56.669,56.669,0,0,1,64.171-11.227ZM41.661,103a126.516,126.516,0,0,0,48.69,32.44,95.535,95.535,0,0,1-6.913,17.52A56.829,56.829,0,0,1,41.661,103Zm51.5,51.674a105.5,105.5,0,0,0,10.075-54.362,94.322,94.322,0,0,1,22.04-11.227,116,116,0,0,1-7,62.132,56.489,56.489,0,0,1-20.061,3.664A47.5,47.5,0,0,1,93.157,154.669Zm37.463-9.986a126.578,126.578,0,0,0,3.723-58.351,95.055,95.055,0,0,1,18.613-2.807,57.333,57.333,0,0,1,1.92,14.684A56.514,56.514,0,0,1,130.62,144.683Z" transform="translate(-32 -32)" fill="#fff"/>
</svg>
