<svg id="icon-phone" xmlns="http://www.w3.org/2000/svg" width="38.147" height="39.208" viewBox="0 0 38.147 39.208">
  <g id="Group_20" data-name="Group 20">
    <path id="Path_11" data-name="Path 11" d="M30.324,0H7.823A7.943,7.943,0,0,0,0,8.041V31.167a7.943,7.943,0,0,0,7.823,8.041h22.5a7.943,7.943,0,0,0,7.823-8.041V8.041A7.943,7.943,0,0,0,30.324,0ZM29.155,28.325l-.6,1.025c-2.328,2.392-8.46-.032-13.7-5.415S7.263,12.25,9.59,9.857l1-.615a1.88,1.88,0,0,1,2.618.673l1.412,2.42a2,2,0,0,1-.287,2.4,2.343,2.343,0,0,0,0,3.249l6.322,6.5a2.193,2.193,0,0,0,3.161,0,1.87,1.87,0,0,1,2.331-.3L28.5,25.634A1.993,1.993,0,0,1,29.155,28.325Z" fill="#fff"/>
  </g>
</svg>
