<?xml version="1.0" encoding="utf-8"?>
<!-- Generator: Adobe Illustrator 22.0.1, SVG Export Plug-In . SVG Version: 6.00 Build 0)  -->
<svg version="1.1" id="Layer_1" xmlns="http://www.w3.org/2000/svg" xmlns:xlink="http://www.w3.org/1999/xlink" x="0px" y="0px"
	 viewBox="0 0 132.4 132.4" style="enable-background:new 0 0 132.4 132.4;" xml:space="preserve">
<style type="text/css">
	.st0{fill:#FFFFFF;}
</style>
<g>
	<path class="st0" d="M113.8,66.2c0-12.2-4.8-23.9-13.3-32.6c-3.1,3.1-5.7,6.7-7.8,10.6c2,0,3.7,1.6,3.7,3.7s-1.6,3.7-3.7,3.7h-3.2
		c-1.2,3.6-1.9,7.3-2.2,11h1.7c2,0,3.7,1.6,3.7,3.7s-1.6,3.7-3.7,3.7h-1.6c0.3,3.7,1,7.4,2.2,11h3.2c2,0,3.7,1.6,3.7,3.7
		c0,2-1.6,3.7-3.7,3.7c2.1,4,4.7,7.7,7.8,11C109.1,90.3,113.8,78.5,113.8,66.2L113.8,66.2z"/>
	<path class="st0" d="M39.6,88.2c-2,0-3.7-1.6-3.7-3.7s1.6-3.7,3.7-3.7h3.2c1.2-3.6,1.9-7.3,2.2-11h-1.6c-2,0-3.7-1.6-3.7-3.7
		s1.6-3.7,3.7-3.7h1.6c-0.3-3.7-1-7.4-2.2-11h-3.2c-2,0-3.7-1.6-3.7-3.7s1.6-3.7,3.7-3.7c-2.1-3.9-4.7-7.5-7.8-10.6
		C23.3,42.3,18.5,54,18.5,66.2c0,12.3,4.8,24.1,13.3,33C34.9,95.9,37.5,92.2,39.6,88.2C39.6,88.2,39.6,88.2,39.6,88.2z"/>
	<path class="st0" d="M81.7,88.2C81.7,88.2,81.7,88.2,81.7,88.2c-2,0-3.7-1.6-3.7-3.7s1.6-3.7,3.7-3.7h0.3c-1-3.6-1.6-7.3-1.9-11h-2
		c-2,0-3.7-1.6-3.7-3.7s1.6-3.7,3.7-3.7h2c0.3-3.7,0.9-7.4,1.9-11h-0.3c-2,0-3.7-1.6-3.7-3.7s1.6-3.7,3.7-3.7h2.8
		c2.6-5.8,6.2-11.1,10.7-15.6C87,22,76.7,18.4,66.2,18.5c-10.5-0.1-20.8,3.5-29,10.1c4.5,4.5,8.1,9.8,10.7,15.6h2.8
		c2,0,3.7,1.6,3.7,3.7s-1.6,3.7-3.7,3.7h-0.3c1,3.6,1.6,7.3,1.9,11h2.1c2,0,3.7,1.6,3.7,3.7s-1.6,3.7-3.7,3.7h-2.1
		c-0.3,3.7-0.9,7.4-1.9,11h0.3c0,0,0,0,0,0c2,0,3.7,1.6,3.7,3.7s-1.6,3.7-3.7,3.7h-2.8c-2.6,5.8-6.2,11.2-10.7,15.8h0
		c17,13.2,40.9,13.2,57.9,0c-4.4-4.6-8-9.9-10.6-15.8H81.7z"/>
	<path class="st0" d="M66.2,0C29.6,0,0,29.6,0,66.2s29.6,66.2,66.2,66.2s66.2-29.6,66.2-66.2S102.7,0,66.2,0z M103,106.9
		c-10,9.3-23.2,14.4-36.9,14.3c-13.7,0.1-26.9-5-36.9-14.3c-11.5-10.4-18-25.2-18.1-40.7c0-15.5,6.7-30.1,18.3-40.3
		c9.8-9.5,23-14.7,36.7-14.7c13.8-0.1,27,5.1,37,14.7c11.5,10.2,18.1,24.9,18,40.3C121.1,81.7,114.6,96.5,103,106.9z"/>
</g>
</svg>
