<svg id="icon-instagram" xmlns="http://www.w3.org/2000/svg" width="40.316" height="40.316" viewBox="0 0 40.316 40.316">
  <path id="Path_7" data-name="Path 7" d="M28.306,0H12.01A12.024,12.024,0,0,0,0,12.011v16.3A12.024,12.024,0,0,0,12.01,40.317h16.3a12.024,12.024,0,0,0,12.01-12.011v-16.3A12.024,12.024,0,0,0,28.306,0Zm7.955,28.306a7.955,7.955,0,0,1-7.955,7.955H12.01a7.955,7.955,0,0,1-7.955-7.955v-16.3A7.955,7.955,0,0,1,12.01,4.056h16.3a7.955,7.955,0,0,1,7.955,7.955v16.3Z" fill="#fff"/>
  <path id="Path_8" data-name="Path 8" d="M143.427,133a10.427,10.427,0,1,0,10.427,10.427A10.439,10.439,0,0,0,143.427,133Zm0,16.8a6.371,6.371,0,1,1,6.371-6.371A6.371,6.371,0,0,1,143.427,149.8Z" transform="translate(-123.269 -123.269)" fill="#fff"/>
  <ellipse id="Ellipse_1" data-name="Ellipse 1" cx="2.499" cy="2.499" rx="2.499" ry="2.499" transform="translate(28.107 7.311)" fill="#fff"/>
</svg>
