<?xml version="1.0" encoding="utf-8"?>
<!-- Generator: Adobe Illustrator 22.0.1, SVG Export Plug-In . SVG Version: 6.00 Build 0)  -->
<svg version="1.1" id="Layer_1" xmlns="http://www.w3.org/2000/svg" xmlns:xlink="http://www.w3.org/1999/xlink" x="0px" y="0px"
	 viewBox="0 0 132.4 132.4" style="enable-background:new 0 0 132.4 132.4;" xml:space="preserve">
<style type="text/css">
	.st0{fill:#FFFFFF;}
</style>
<g>
	<path class="st0" d="M63.4,24c0.2,0.1,0.4,0.3,0.5,0.7c0,0.1,0.1,0.1,0.1,0.2c0.5,0.6,0.6,1.4,0.5,2.2c0,0.1,0,0.1,0,0.2v0.2
		c0,0.5,0.4,0.9,0.9,0.9H67c0.5,0,0.9-0.4,0.9-0.9v-0.3c0-0.1,0-0.1,0-0.2c-0.2-1.1,0.3-2.3,1.3-3c0.3-0.2,0.5-0.6,0.4-1
		c-0.1-0.4-0.5-0.7-0.9-0.7h-4.9c-0.4,0-0.8,0.3-0.9,0.7C62.8,23.4,63,23.8,63.4,24z"/>
	<path class="st0" d="M42.2,45.1c0.1,0.1,0.3,0.1,0.4,0.1c0.3,0,0.5-0.1,0.7-0.3c2-2.5,3.4-5.9,3.9-9.6c0-0.3,0-0.5-0.2-0.7
		c-0.2-0.2-0.4-0.3-0.7-0.3h-2.2c-0.5,0-0.8,0.3-0.9,0.8c-0.1,0.8-0.3,2.1-0.6,3.5c-0.3,1.8-0.7,3.9-1,5.7
		C41.6,44.5,41.8,44.9,42.2,45.1z"/>
	<path class="st0" d="M44.8,28.1h12.2c0.1,0.1,0.2,0.1,0.3,0.1c0,0,0.1,0,0.1,0c0.4,0,0.8-0.3,0.9-0.8l0.3-1.7
		c0.2-0.8,0.6-1.5,1.3-2c0.3-0.2,0.4-0.7,0.3-1c-0.1-0.4-0.5-0.6-0.9-0.6H44.8c-0.5,0-0.9,0.4-0.9,0.9v4.2
		C43.9,27.7,44.3,28.1,44.8,28.1z"/>
	<path class="st0" d="M72.6,23.9c0.6,0.4,1.1,1.1,1.2,1.9l0.3,1.6c0.1,0.4,0.5,0.8,0.9,0.8h12.7c0.5,0,0.9-0.4,0.9-0.9v-4.2
		c0-0.5-0.4-0.9-0.9-0.9H73.1c-0.4,0-0.8,0.3-0.9,0.7C72.1,23.3,72.2,23.7,72.6,23.9z"/>
	<path class="st0" d="M86.1,34.2c-0.3,0-0.5,0.1-0.7,0.3c-0.2,0.2-0.3,0.5-0.2,0.8c0.6,3.7,2,7.1,3.9,9.5c0.2,0.2,0.5,0.4,0.7,0.4
		c0.1,0,0.3,0,0.4-0.1c0.4-0.2,0.6-0.6,0.5-1c-0.7-4-1.2-6.8-1.6-9.1c-0.1-0.4-0.5-0.8-0.9-0.8H86.1z"/>
	<path class="st0" d="M91.8,53.9C83.9,51.2,80.1,42,79.2,35c-0.1-0.5-0.5-0.8-0.9-0.8h-2c-0.3,0-0.5,0.1-0.7,0.3
		c-0.2,0.2-0.2,0.5-0.2,0.8l0.8,4.7c0.2,0.8,0,1.6-0.5,2.2c-0.4,0.6-1.1,1-1.8,1.2c-0.2,0-0.3,0-0.4,0.1c-0.1,0-0.2,0-0.2,0
		c-1.4,0-2.7-1.1-2.9-2.4l-1-6c-0.1-0.4-0.5-0.8-0.9-0.8H64c-0.5,0-0.8,0.3-0.9,0.8l-1,6c-0.2,1.4-1.5,2.5-2.9,2.5
		c-0.1,0-0.2,0-0.2,0c-0.1,0-0.1-0.1-0.2-0.1c-0.9-0.2-1.5-0.6-1.9-1.1c-0.5-0.7-0.7-1.4-0.5-2.2l0.8-4.7c0-0.3,0-0.5-0.2-0.8
		c-0.2-0.2-0.4-0.3-0.7-0.3h-2c-0.5,0-0.9,0.3-0.9,0.8c-0.9,7.1-4.8,16.3-12.7,18.9c-0.3,0.1-0.6,0.4-0.6,0.8
		c-1.6,11.2-3.6,32.1-3.4,43.5c0,0.5,0.4,0.9,0.9,0.9h12.9c0.4,0,0.8-0.3,0.9-0.7c1.4-4.4,3-10.3,5.8-21l1.2-4.6l0.1-0.3
		c0.8-3.1,1.7-6.7,2.8-10.6c0.7-2.7,3-3.9,5-3.9c2,0,4.3,1.2,5,3.9l2.5,9.4l1.6,5.8c2.9,10.8,4.5,16.7,5.8,21.2
		c0.1,0.4,0.5,0.7,0.9,0.7H95c0.5,0,0.9-0.4,0.9-0.9c0.2-11.4-1.9-32.3-3.4-43.4C92.4,54.3,92.2,54,91.8,53.9z"/>
	<path class="st0" d="M47.5,105h-9.2c-0.3,0-0.5,0.1-0.7,0.3c-0.2,0.2-0.3,0.5-0.2,0.7l0.1,0.4c0.1,0.8,0.2,1.8,0.5,3
		c0.1,0.4,0.5,0.7,0.9,0.7h7.3c0.4,0,0.7-0.2,0.8-0.6c0.1-0.3,0.3-0.7,0.5-1.1c0.3-0.7,0.6-1.5,1-2.2c0.1-0.3,0.1-0.6,0-0.9
		S47.8,105,47.5,105z"/>
	<path class="st0" d="M66.2,0C29.6,0,0,29.6,0,66.2s29.6,66.2,66.2,66.2s66.2-29.6,66.2-66.2S102.7,0,66.2,0z M99.8,113.9
		c-0.3,1.3-1.5,2.3-2.9,2.3h-13c-1.1,0-2.2-0.7-2.7-1.7c-5.3-11.8-5.4-12.3-12.4-38.5l-1.7-6.3c-0.1-0.4-0.5-0.7-0.9-0.7
		c0,0,0,0,0,0c-0.4,0-0.8,0.3-0.9,0.7l-1.1,4.3l-0.3,1.2c-7.1,26.7-7.2,27.2-12.6,39.2c-0.5,1.1-1.5,1.7-2.7,1.7h-13
		c-1.4,0-2.6-0.9-2.9-2.3C27.3,91,35.3,44.6,37.8,31c0-0.1,0-0.1,0-0.2V19.2c0-1.7,1.4-3,3-3h50.7c0.8,0,1.6,0.3,2.1,0.9
		c0.5,0.5,0.9,1.3,0.9,2.1V31c0,0.1,0,0.1,0,0.2C99.7,57.7,104.1,95.3,99.8,113.9z"/>
	<path class="st0" d="M94.2,105.1H85c-0.3,0-0.6,0.2-0.8,0.4c-0.2,0.3-0.2,0.6-0.1,0.9c0.2,0.5,0.4,1,0.6,1.5c0.2,0.5,0.4,1,0.6,1.4
		c0.1,0.2,0.2,0.5,0.4,0.7c0.2,0.2,0.4,0.3,0.7,0.3h7.3c0.4,0,0.8-0.3,0.9-0.8c0.2-1.1,0.4-2.3,0.5-3.4c0-0.3-0.1-0.5-0.2-0.7
		C94.8,105.2,94.5,105.1,94.2,105.1z"/>
</g>
</svg>
