<?xml version="1.0" encoding="utf-8"?>
<!-- Generator: Adobe Illustrator 22.0.1, SVG Export Plug-In . SVG Version: 6.00 Build 0)  -->
<svg version="1.1" id="Layer_1" xmlns="http://www.w3.org/2000/svg" xmlns:xlink="http://www.w3.org/1999/xlink" x="0px" y="0px"
	 viewBox="0 0 132.4 132.4" style="enable-background:new 0 0 132.4 132.4;" xml:space="preserve">
<style type="text/css">
	.st0{fill:#FFFFFF;}
</style>
<g>
	<path class="st0" d="M19.2,70.2c1.7,19.8,15.6,36.3,34.7,41.5c2.4-4.7,4.3-9.5,5.7-14.6C44.3,91.4,30.4,82.2,19.2,70.2z"/>
	<path class="st0" d="M86.2,23.5c-18-8.4-39.3-4.7-53.3,9.3c2.8,4.4,6.1,8.5,9.7,12.2C55.3,34.6,70.2,27.2,86.2,23.5z"/>
	<path class="st0" d="M65.6,61.7c12.8-8.9,27.7-14.2,43.3-15.4c-3-6.4-7.4-12.1-12.9-16.6c-17.5,2.4-33.9,9.6-47.6,20.8
		C53.6,54.9,59.4,58.7,65.6,61.7z"/>
	<path class="st0" d="M62.5,68.9C48.5,62.3,36.4,52,27.6,39.1c-4.1,5.8-6.8,12.5-8,19.5C30.5,72.5,45,83.2,61.5,89.4
		C62.7,82.7,63.1,75.8,62.5,68.9z"/>
	<path class="st0" d="M66.2,0C29.6,0,0,29.6,0,66.2s29.6,66.2,66.2,66.2s66.2-29.6,66.2-66.2S102.7,0,66.2,0z M55.4,120.1
		c-0.2,0-0.3-0.1-0.5-0.1c-9.4-2-18.1-6.3-25.2-12.7C7,87.2,4.9,52.5,25,29.7l0,0c10.4-11.8,25.4-18.5,41.1-18.5
		c3.6,0,7.2,0.4,10.7,1.1c29.8,5.9,49.1,34.9,43.2,64.7S85.2,126.1,55.4,120.1z"/>
	<path class="st0" d="M96.2,56.3c2.8,16.2,1.7,32.8-3.1,48.5c12.6-8.8,20.2-23.2,20.2-38.6c0-4.1-0.5-8.2-1.6-12.2
		C106.5,54.3,101.3,55.1,96.2,56.3z"/>
	<path class="st0" d="M70.4,68c1.3,15.5-1.6,31.1-8.4,45.2c1.4,0.1,2.8,0.2,4.2,0.2c5.7,0,11.3-1,16.7-3c6.6-16.4,8.6-34.2,5.8-51.6
		C82.2,60.9,76.1,64.1,70.4,68z"/>
</g>
</svg>
