<?xml version="1.0" encoding="utf-8"?>
<!-- Generator: Adobe Illustrator 22.0.1, SVG Export Plug-In . SVG Version: 6.00 Build 0)  -->
<svg version="1.1" id="Layer_1" xmlns="http://www.w3.org/2000/svg" xmlns:xlink="http://www.w3.org/1999/xlink" x="0px" y="0px"
	 viewBox="0 0 132.4 132.4" style="enable-background:new 0 0 132.4 132.4;" xml:space="preserve">
<style type="text/css">
	.st0{fill:#FFFFFF;}
</style>
<g>
	<path class="st0" d="M75.6,30.3l8-8c1.2-1.2,1.6-3,0.9-4.6c-0.4-0.9-1.1-1.7-2-2.2l-0.7-0.3l-11.1,11L75.6,30.3z"/>
	<path class="st0" d="M56.7,30.3l4.9-4.1l-11.1-11l-0.7,0.3c-0.9,0.5-1.6,1.2-2,2.2c-0.7,1.6-0.3,3.4,0.9,4.6L56.7,30.3z"/>
	<polygon class="st0" points="73.1,15.1 59.3,15.1 66.2,22 	"/>
	<path class="st0" d="M99.3,23.4h-9L90,23.9c-0.5,1-1.2,1.9-2,2.7L78,36.8c-0.6,0.6-1.4,0.9-2.2,0.9c-0.7,0-1.5-0.3-2-0.7l-2.4-2
		v16.5c0,1-0.8,1.9-1.9,1.9h-6.6c-1,0-1.9-0.8-1.9-1.9V34.9l-2.4,2c-0.6,0.5-1.3,0.7-2,0.7c-0.8,0-1.6-0.3-2.2-0.9l-10-10.1
		c-0.8-0.8-1.5-1.7-2-2.7L42,23.4h-9c-1.5,0-2.8,0.8-3.5,2.1L22,40.6l7.6,2.4l0.4-0.9c0.5-1.1,1.6-1.9,2.9-1.9v0
		c1.7,0,3.1,1.4,3.1,3.1c0,0,0,0,0,0v67.3h60.4V43.3c0-1.7,1.4-3.1,3.1-3.1c0,0,0,0,0,0c1.3,0,2.4,0.8,2.9,1.9l0.4,0.9l7.6-2.4
		l-7.6-15.1C102.1,24.2,100.7,23.4,99.3,23.4z M86.5,51.7C86.5,51.7,86.5,51.7,86.5,51.7h-5.9c-1.7,0-3.1-1.4-3.1-3.1
		s1.4-3.1,3.1-3.1c0,0,0,0,0,0h5.9c1.7,0,3.1,1.4,3.1,3.1S88.2,51.7,86.5,51.7z"/>
	<path class="st0" d="M66.2,0C29.6,0,0,29.6,0,66.2s29.6,66.2,66.2,66.2s66.2-29.6,66.2-66.2S102.7,0,66.2,0z M118,50.1l-15.4,4.8
		v58.8c0,1.7-1.4,3.1-3.1,3.1c0,0,0,0,0,0l-66.6,0c-1.7,0-3.1-1.4-3.1-3.1c0,0,0,0,0,0V54.9l-15.4-4.8c-0.9-0.3-1.6-0.9-1.9-1.8
		c-0.4-0.8-0.3-1.8,0.1-2.6l11.6-23c1.7-3.4,5.2-5.6,9-5.5h8.4l0.2-0.7c0.1-0.4,0.3-0.8,0.4-1.1c1.6-3.9,5.4-6.5,9.6-6.4h28.9
		c4.2,0,8,2.5,9.6,6.4c0.1,0.4,0.3,0.7,0.4,1.1l0.2,0.7h8.4c3.8,0,7.3,2.1,9,5.5l11.6,23c0.4,0.8,0.4,1.8,0.1,2.6
		C119.6,49.2,118.9,49.8,118,50.1z"/>
</g>
</svg>
