<?xml version="1.0" encoding="utf-8"?>
<!-- Generator: Adobe Illustrator 22.0.1, SVG Export Plug-In . SVG Version: 6.00 Build 0)  -->
<svg version="1.1" id="Layer_1" xmlns="http://www.w3.org/2000/svg" xmlns:xlink="http://www.w3.org/1999/xlink" x="0px" y="0px"
	 viewBox="0 0 132.4 132.4" style="enable-background:new 0 0 132.4 132.4;" xml:space="preserve">
<style type="text/css">
	.st0{fill:#FFFFFF;}
</style>
<g>
	<polygon class="st0" points="65,48.1 65,114.8 67.3,114.8 67.3,48.1 65,48.1 	"/>
	<path class="st0" d="M57.4,60.6c0,1.4-1.2,2.5-2.6,2.6c-1.4,0-2.6-1.1-2.6-2.6v-4.5c0-3.3,1.1-6.5,3-9.1c-0.7-0.2-1.3-0.5-2-0.8
		h-4.8c-6,0-11.2,4.3-12.3,10.2L29,95.9h7.1l3.8-28c0.2-1.3,1.3-2.3,2.6-2.3c0.1,0,0.2,0,0.3,0c1.4,0.2,2.4,1.5,2.2,2.9l-6.2,46.3
		h20.9V49.6c-1.5,1.8-2.4,4.1-2.4,6.5V60.6z M52.9,95.2l-3.8,15.1c-0.3,1-1.3,1.6-2.3,1.4l0,0c-1-0.3-1.6-1.3-1.4-2.3l3.8-15.1
		c0.3-1,1.3-1.6,2.3-1.4C52.5,93.1,53.1,94.1,52.9,95.2z"/>
	<path class="st0" d="M73,30.3c0-5.6-3.8-12.6-6.9-12.6c-3.1,0-6.9,6.9-6.9,12.6h0v9.5c0,1.3,0.9,2.5,2.2,2.9
		c1.3,0.1,2.9,0.1,4.7,0.1s3.4-0.1,4.7-0.1c1.3-0.4,2.2-1.6,2.2-2.9V30.3z"/>
	<polygon class="st0" points="27.6,103.4 35.1,103.4 35.4,101.1 28.1,101.1 	"/>
	<path class="st0" d="M54.2,40.7c0-0.3-0.1-0.6-0.1-0.9v-9.5c0.1-3.9,1.2-7.8,3.1-11.2c2.4-4.2,5.6-6.5,9-6.5c3.4,0,6.6,2.3,9,6.5
		c2,3.4,3,7.3,3.1,11.2v9.5c0,0.3,0,0.6-0.1,0.9c1.7-1.3,2.4-3.4,2.4-6.6c0-6.8-1.6-13-4.6-17.5c-2.7-4.1-6.2-6.4-9.9-6.4
		s-7.2,2.3-9.9,6.4c-2.9,4.5-4.6,10.7-4.6,17.5C51.7,37.3,52.5,39.4,54.2,40.7z"/>
	<path class="st0" d="M87.5,65.6c0.1,0,0.3,0,0.4,0c0,0,0,0,0,0h0c0,0,0,0,0,0c1.3,0,2.3,0.9,2.6,2.2l4.9,28.1h8l-7.1-39.5
		c-1.1-5.9-6.3-10.2-12.3-10.2h-4.8c-0.6,0.3-1.3,0.6-2,0.8c2,2.6,3,5.9,3,9.1v4.5c0,1.4-1.2,2.5-2.6,2.6c-1.4,0-2.6-1.1-2.6-2.6
		v-4.5c0-2.4-0.8-4.7-2.4-6.5v65.2h20.8l-8-46.2c0,0,0,0,0,0C85.1,67.2,86.1,65.9,87.5,65.6z M86.9,109.4c0.2,1-0.4,2-1.4,2.3
		c-1,0.3-2-0.3-2.3-1.3l-3.8-15.1v0c0,0,0,0,0,0c-0.2-1,0.4-2,1.4-2.3h0c0,0,0,0,0,0c1-0.2,2,0.4,2.2,1.4L86.9,109.4z"/>
	<polygon class="st0" points="96.3,101.1 96.7,103.4 104.7,103.4 104.3,101.1 	"/>
	<path class="st0" d="M66.2,0C29.6,0,0,29.6,0,66.2s29.6,66.2,66.2,66.2s66.2-29.6,66.2-66.2S102.7,0,66.2,0z M107.8,108.6H97.6
		l1.4,8.3c0,0.1,0,0.3,0,0.4c0,1.4-1.2,2.6-2.6,2.6H35.9c-0.1,0-0.2,0-0.3,0c-1.4-0.2-2.4-1.5-2.2-2.9l1.1-8.4h-9.9
		c-0.2,0-0.3,0-0.5,0c0,0,0,0,0,0c-1.4-0.3-2.4-1.6-2.1-3l9-50.1c1.5-8.2,8.6-14.2,16.9-14.5c-1-2.2-1.4-4.5-1.3-6.9
		c0-7.8,1.9-15,5.4-20.3C55.6,8.1,60.7,5,66.2,5c5.5,0,10.5,3.1,14.2,8.8c3.5,5.4,5.4,12.6,5.4,20.3c0.1,2.4-0.4,4.7-1.4,6.9
		c8.3,0.3,15.3,6.3,16.9,14.5l9,50.1c0,0.1,0,0.3,0.1,0.4C110.5,107.4,109.3,108.6,107.8,108.6z"/>
</g>
</svg>
