<?xml version="1.0" encoding="utf-8"?>
<!-- Generator: Adobe Illustrator 22.0.1, SVG Export Plug-In . SVG Version: 6.00 Build 0)  -->
<svg version="1.1" id="Layer_1" xmlns="http://www.w3.org/2000/svg" xmlns:xlink="http://www.w3.org/1999/xlink" x="0px" y="0px"
	 viewBox="0 0 132.4 132.4" style="enable-background:new 0 0 132.4 132.4;" xml:space="preserve">
<style type="text/css">
	.st0{fill:#FFFFFF;}
</style>
<g>
	<path class="st0" d="M66.2,32.3c5.1-0.1,9.6-3.2,11.6-7.9l0.5-1.3H54.1l0.5,1.3C56.5,29.2,61.1,32.3,66.2,32.3z"/>
	<rect x="99.4" y="94.1" class="st0" width="9.8" height="5.6"/>
	<rect x="23.1" y="94.1" class="st0" width="9.8" height="5.6"/>
	<path class="st0" d="M94,25l-8.8-1.4L85,24.5c-0.9,3.6-2.8,6.9-5.6,9.5c-3.6,3.4-8.3,5.3-13.3,5.3c-8.9,0-16.7-6.1-18.9-14.8
		l-0.2-0.8l-8.8,1.4c-4.2,0.6-8.1,2.8-10.9,6c-2.8,3.3-4.3,7.5-4.3,11.8v44.4h9.8V50.7c0-1.9,1.6-3.5,3.5-3.5c1.9,0,3.5,1.6,3.5,3.5
		v58.5h52.6V50.7c0-1.9,1.6-3.5,3.5-3.5c1.9,0,3.5,1.6,3.5,3.5v36.5h9.8V42.7c0-4.3-1.5-8.5-4.3-11.8C102.1,27.7,98.3,25.6,94,25z"
		/>
	<path class="st0" d="M66.2,0C29.6,0,0,29.6,0,66.2s29.6,66.2,66.2,66.2s66.2-29.6,66.2-66.2S102.7,0,66.2,0z M112.7,106.6H99.4v6.1
		c0,1.9-1.6,3.5-3.5,3.5H36.4c-1.9,0-3.5-1.6-3.5-3.5v-6.1H19.6c-1.9,0-3.5-1.6-3.5-3.5V42.7c0-6,2.1-11.7,6-16.3
		c3.9-4.5,9.2-7.5,15.1-8.4l12.4-1.9c0.2,0,0.3,0,0.5,0h31.9c0.2,0,0.3,0,0.5,0l12.4,1.9c5.9,0.9,11.3,3.8,15.1,8.4
		c3.9,4.5,6,10.3,6,16.3v60.4C116.2,105.1,114.6,106.6,112.7,106.6z"/>
</g>
</svg>
