<svg xmlns="http://www.w3.org/2000/svg" width="150" height="149.971" viewBox="0 0 150 149.971">
  <path id="icon-longsleeves" d="M35.347,155.071a5.228,5.228,0,0,1-5.212-5.212v-9.093H10.212A5.228,5.228,0,0,1,5,135.554V44.946a37.434,37.434,0,0,1,9.006-24.411A36.86,36.86,0,0,1,36.708,8L55.241,5.158a3.828,3.828,0,0,1,.782-.058h47.9a7.661,7.661,0,0,1,.782.058L123.32,8a36.945,36.945,0,0,1,22.674,12.539A37.434,37.434,0,0,1,155,44.946v90.608a5.228,5.228,0,0,1-5.212,5.212H129.865v9.093a5.228,5.228,0,0,1-5.212,5.212Zm0-103.436a5.228,5.228,0,0,1,5.212,5.212v87.8h78.88v-87.8a5.212,5.212,0,1,1,10.425,0v54.672h14.71V44.946a27.211,27.211,0,0,0-6.515-17.664,26.646,26.646,0,0,0-16.3-9.006l-13.2-2.027-.319,1.274a29.126,29.126,0,0,1-8.34,14.218,28.949,28.949,0,0,1-19.923,7.905A29.216,29.216,0,0,1,51.68,17.494l-.319-1.274L38.214,18.247a26.734,26.734,0,0,0-16.3,9.035,27.339,27.339,0,0,0-6.486,17.664v66.573h14.71V56.847A5.228,5.228,0,0,1,35.347,51.635Zm94.517,78.707h14.71v-8.4h-14.71Zm-114.44,0h14.71v-8.4H15.425ZM62.683,17.494A18.88,18.88,0,0,0,80,29.28,19.042,19.042,0,0,0,97.346,17.494l.811-2H61.873Z" transform="translate(-5 -5.1)" fill="#fff"/>
</svg>
