<svg xmlns="http://www.w3.org/2000/svg" width="149.989" height="149.974" viewBox="0 0 149.989 149.974">
  <path id="icon-poloshirt" d="M28.725,149.945a4.3,4.3,0,0,1-4.309-4.309V63.942L3.016,57.22A4.252,4.252,0,0,1,.345,54.779,4.314,4.314,0,0,1,.46,51.159L16.517,19.188a13.824,13.824,0,0,1,12.467-7.7H40.7l.316-1.034a15.908,15.908,0,0,1,.575-1.58A14.255,14.255,0,0,1,54.98-.029H95.051a14.312,14.312,0,0,1,13.386,8.9c.2.488.373,1.005.546,1.551l.316,1.034h11.72a13.824,13.824,0,0,1,12.467,7.7l16.057,32a4.419,4.419,0,0,1,.115,3.619,4.329,4.329,0,0,1-2.671,2.442l-21.4,6.722v81.694a4.3,4.3,0,0,1-4.309,4.309Zm0-106.4a4.3,4.3,0,0,1,4.309,4.309v93.471h83.877V47.856a4.3,4.3,0,0,1,4.309-4.309,4.413,4.413,0,0,1,3.993,2.671l.517,1.206L136.3,44.093l-10.542-21a5.342,5.342,0,0,0-4.8-2.959H108.437l-.4.776a14.432,14.432,0,0,1-2.758,3.792L91.346,38.721a4.253,4.253,0,0,1-3.074,1.264,4.477,4.477,0,0,1-2.815-1.034l-3.332-2.844V58.973a2.624,2.624,0,0,1-2.614,2.614H70.376a2.624,2.624,0,0,1-2.614-2.614V36.107L64.43,38.951a4.36,4.36,0,0,1-2.815,1.034,4.253,4.253,0,0,1-3.074-1.264L44.639,24.7a14.919,14.919,0,0,1-2.758-3.792l-.4-.776H28.955a5.322,5.322,0,0,0-4.8,2.959l-10.542,21,10.6,3.3.517-1.206A4.433,4.433,0,0,1,28.725,43.547Zm52.6-19.476,6.75,5.716L99.188,18.614a5.842,5.842,0,0,0,1.264-6.377,6.289,6.289,0,0,0-2.815-3.045l-.919-.46ZM52.366,9.192a6.114,6.114,0,0,0-2.815,3.016,5.866,5.866,0,0,0,1.235,6.406L61.9,29.788l6.75-5.716L53.285,8.732ZM74.972,18.24,84.6,8.618H65.378ZM94.994,59.49a4.309,4.309,0,1,1,0-8.618h8.187a4.309,4.309,0,1,1,0,8.618Z" transform="translate(-0.002 0.029)" fill="#fff"/>
</svg>
