<svg xmlns="http://www.w3.org/2000/svg" width="132.36" height="132.36" viewBox="0 0 132.36 132.36">
  <path id="icon-basketball" d="M66.18,0a66.18,66.18,0,1,0,66.18,66.18A66.255,66.255,0,0,0,66.18,0ZM38.2,115.955c-.143-.068-15.254-6.634-8.775-30.312,1.649-6.029,6.172-11.562,10.96-17.419,7.679-9.4,16.383-20.045,16.606-36.239q.009-.681-.009-1.342,2.309-.314,4.677-.472v92.976C53.449,122.5,45.287,119.314,38.2,115.955ZM10.013,76.723C8.152,56.676,25.93,38.74,47.94,32.519,47.528,45.2,40.347,54,33.394,62.506,28.22,68.835,22.87,75.38,20.714,83.258A50.945,50.945,0,0,0,18.74,98.006C14.488,91.688,10.743,84.579,10.013,76.723ZM50.456,15.562A17.843,17.843,0,0,0,45.795,12.8,56.712,56.712,0,0,1,61.662,9.214V21.121q-3.31.193-6.524.66A16.834,16.834,0,0,0,50.456,15.562Zm26.765,6.219q-3.212-.465-6.524-.66V9.213A56.711,56.711,0,0,1,86.565,12.8,17.833,17.833,0,0,0,81.9,15.561,16.842,16.842,0,0,0,77.222,21.781Zm17.527,93.836c-7.432,3.751-15.317,6.844-24.051,7.53V30.171q2.368.155,4.677.472-.018.661-.009,1.342c.222,16.194,8.927,26.843,16.606,36.239,4.788,5.858,9.311,11.391,10.96,17.419C109.319,108.986,95.33,115.323,94.749,115.617Zm27.6-39.243c-.73,7.857-4.474,15.315-8.726,21.632a50.945,50.945,0,0,0-1.974-14.748c-2.156-7.878-7.505-14.423-12.679-20.752C92.013,54,84.832,45.2,84.42,32.519,106.43,38.74,124.208,56.327,122.347,76.374Zm-3.791-33.036a66.039,66.039,0,0,0-32.05-19.6,7.424,7.424,0,0,1,1.141-1.2c3.02-2.525,9.285-2.622,12.415-2.345A57.476,57.476,0,0,1,118.555,43.337ZM32.307,20.186c3.075-.269,9.353-.182,12.383,2.33a7.447,7.447,0,0,1,1.164,1.217A66.036,66.036,0,0,0,13.8,43.337,57.481,57.481,0,0,1,32.307,20.186Z" fill="#fff"/>
</svg>
