<svg xmlns="http://www.w3.org/2000/svg" width="132.446" height="132.472" viewBox="0 0 132.446 132.472">
  <path id="icon-cycling" d="M66.249,18.581a47.668,47.668,0,1,0,47.668,47.668A47.712,47.712,0,0,0,66.249,18.581ZM98.7,43.036l-21.841,12.6L89.462,33.8A40.134,40.134,0,0,1,98.7,43.036Zm-28.57-16.51a40.013,40.013,0,0,1,12.629,3.39L70.131,51.757ZM43.036,33.8l12.6,21.841L33.8,43.036A40.134,40.134,0,0,1,43.036,33.8ZM29.915,49.738,51.757,62.367H26.525A40.013,40.013,0,0,1,29.915,49.738Zm0,33.021a39.645,39.645,0,0,1-3.39-12.629H51.757Zm3.882,6.7,21.841-12.6L43.036,98.7A40.134,40.134,0,0,1,33.8,89.462Zm28.57,16.51a40.013,40.013,0,0,1-12.629-3.39L62.367,80.741Zm0-54.215L49.738,29.89A39.645,39.645,0,0,1,62.367,26.5Zm3.882,18.3a3.8,3.8,0,1,1,3.8-3.8A3.81,3.81,0,0,1,66.249,70.053Zm3.882,35.919V80.741l12.629,21.867A40.681,40.681,0,0,1,70.131,105.972ZM89.462,98.7l-12.6-21.841L98.7,89.462A40.134,40.134,0,0,1,89.462,98.7Zm13.12-15.941L80.741,70.131h25.231A40.013,40.013,0,0,1,102.582,82.759Zm3.39-20.392H80.741l21.867-12.629A40.681,40.681,0,0,1,105.972,62.367Zm23.989,0a67.675,67.675,0,0,0-1.139-8.876l2.433-.647-2.019-7.5-2.407.647a63.719,63.719,0,0,0-3.416-8.255l2.174-1.242-3.882-6.728-2.174,1.268a64.663,64.663,0,0,0-5.46-7.091l1.786-1.786-5.486-5.486-1.786,1.786a62.289,62.289,0,0,0-7.091-5.46l1.268-2.174L96.035,6.935,94.793,9.109a60.282,60.282,0,0,0-8.255-3.416l.647-2.407-7.5-2.019L79.033,3.7a64.469,64.469,0,0,0-8.9-1.165V0H62.367V2.536a67.673,67.673,0,0,0-8.876,1.139l-.647-2.433-7.5,2.019.647,2.407a63.721,63.721,0,0,0-8.255,3.416L36.489,6.91,29.76,10.791l1.268,2.174a64.663,64.663,0,0,0-7.091,5.46L22.152,16.64l-5.486,5.512,1.786,1.786a62.291,62.291,0,0,0-5.46,7.091L10.817,29.76,6.935,36.489l2.174,1.242a60.282,60.282,0,0,0-3.416,8.255l-2.407-.647-2.019,7.5,2.433.647a63.59,63.59,0,0,0-1.165,8.876H0v7.764H2.536a67.673,67.673,0,0,0,1.139,8.876l-2.433.647,2.019,7.5,2.407-.647a63.72,63.72,0,0,0,3.416,8.255L6.91,96.009l3.882,6.728,2.174-1.268a64.663,64.663,0,0,0,5.46,7.091l-1.786,1.786,5.486,5.486,1.786-1.786A62.29,62.29,0,0,0,31,119.507l-1.268,2.174,6.728,3.882,1.242-2.174A60.282,60.282,0,0,0,45.96,126.8l-.647,2.407,7.5,2.019.647-2.433a63.06,63.06,0,0,0,8.876,1.139v2.536H70.1v-2.536a67.672,67.672,0,0,0,8.876-1.139l.647,2.433,7.5-2.019-.647-2.407a63.721,63.721,0,0,0,8.255-3.416l1.242,2.174,6.728-3.882-1.268-2.174a64.662,64.662,0,0,0,7.091-5.46l1.786,1.786,5.486-5.486-1.786-1.786a62.29,62.29,0,0,0,5.46-7.091l2.174,1.268,3.882-6.728-2.174-1.242a60.281,60.281,0,0,0,3.416-8.255l2.407.647,2.019-7.5-2.433-.647a63.06,63.06,0,0,0,1.139-8.876h2.536V62.367Zm-24.067,43.528A56.068,56.068,0,1,1,26.6,26.6a56.068,56.068,0,1,1,79.292,79.292Z" fill="#fff"/>
</svg>
