<?xml version="1.0" encoding="utf-8"?>
<!-- Generator: Adobe Illustrator 22.0.1, SVG Export Plug-In . SVG Version: 6.00 Build 0)  -->
<svg version="1.1" id="Layer_1" xmlns="http://www.w3.org/2000/svg" xmlns:xlink="http://www.w3.org/1999/xlink" x="0px" y="0px"
	 viewBox="0 0 132.4 132.4" style="enable-background:new 0 0 132.4 132.4;" xml:space="preserve">
<style type="text/css">
	.st0{fill:#FFFFFF;}
</style>
<g>
	<path class="st0" d="M66.2,0C29.6,0,0,29.6,0,66.2s29.6,66.2,66.2,66.2s66.2-29.6,66.2-66.2S102.7,0,66.2,0z M116.6,58.9
		c-6.4,4.4-15.6,10.7-15.6,10.7c-0.2,0.1-0.3,0.2-0.5,0.3v34.8c0,0,0,0,0,0c0,5.8-4.7,10.6-10.6,10.6H42.7c0,0,0,0,0,0
		c-5.8,0-10.6-4.7-10.6-10.6V69.9c-0.3-0.1-0.5-0.2-0.7-0.4L15.8,58.9c-0.2-0.1-0.4-0.2-0.5-0.4c-4.6-3.6-5.4-10.3-1.9-14.9l19.5-25
		c0.7-0.9,1.8-1.5,3-1.5h16.9c1.2,0,2.3,0.6,3.1,1.5c0.7,1,1.6,1.9,2.6,2.6c5.8,4.3,13.9,3.1,18.2-2.6c0.7-1,1.9-1.5,3.1-1.5h16.6
		c1.2,0,2.3,0.6,3,1.5l19.5,25c1.8,2.3,2.6,5.2,2.1,8.1C120.6,54.6,119,57.2,116.6,58.9z"/>
	<path class="st0" d="M94.6,24.9h-13c-0.4,0.5-0.9,0.9-1.4,1.4c-8.5,7.7-21.5,7.1-29.2-1.4H37.8L19.5,48.3c-0.5,0.6-0.7,1.4-0.6,2.2
		c0.1,0.8,0.6,1.5,1.2,2l11.9,8.2V48.9c0-2.1,1.7-3.8,3.8-3.8c2.1,0,3.8,1.7,3.8,3.8v55.8c0,1.6,1.3,2.9,2.9,2.9H90
		c1.6,0,2.9-1.3,2.9-2.9V48.9c0-2.1,1.7-3.8,3.8-3.8c2.1,0,3.8,1.7,3.8,3.8v11.7l11.7-8c0.7-0.5,1.1-1.2,1.2-2
		c0.1-0.8-0.1-1.6-0.6-2.2L94.6,24.9z"/>
</g>
</svg>
