<svg xmlns="http://www.w3.org/2000/svg" width="132.36" height="132.365" viewBox="0 0 132.36 132.365">
  <path id="icon-baseball" d="M111.653,18.65A63.4,63.4,0,0,0,67.18,1,63.092,63.092,0,0,0,23.06,18.65,64.768,64.768,0,0,0,1,67.182a66.18,66.18,0,0,0,21.751,48.929A64.5,64.5,0,0,0,67.18,133.362a64.283,64.283,0,0,0,44.341-17.207A66.18,66.18,0,0,0,133.36,67.182,64.768,64.768,0,0,0,111.653,18.65Zm12.883,48.532a57.354,57.354,0,0,1-15.969,39.705,57.356,57.356,0,0,1-9.356-13.233,4.412,4.412,0,0,0,0-8.824H95.417a56.3,56.3,0,0,1-2.6-13.236H94.8a4.412,4.412,0,0,0,0-8.824H92.814a55.414,55.414,0,0,1,2.6-13.236h3.794a4.412,4.412,0,1,0,0-8.824,55.2,55.2,0,0,1,9.353-12.751,56.032,56.032,0,0,1,15.971,39.223Zm-114.712,0A56.076,56.076,0,0,1,25.8,27.959,55.194,55.194,0,0,1,35.149,40.71a4.412,4.412,0,0,0,0,8.824h3.794a55.414,55.414,0,0,1,2.6,13.236H39.6a4.412,4.412,0,1,0,0,8.824h1.941a56.3,56.3,0,0,1-2.6,13.236H35.149a4.412,4.412,0,1,0,0,8.824A57.356,57.356,0,0,1,25.8,106.89,57.356,57.356,0,0,1,9.824,67.182Zm22.457,45.444A65.651,65.651,0,0,0,45.12,93.654h3.4a4.412,4.412,0,1,0,0-8.824h-.309A67.018,67.018,0,0,0,50.5,71.594h2.471a4.412,4.412,0,1,0,0-8.824H50.5a66.489,66.489,0,0,0-2.294-13.236h.309a4.412,4.412,0,0,0,0-8.824h-3.4A63.488,63.488,0,0,0,32.281,21.959,54.841,54.841,0,0,1,67.18,9.826a54.841,54.841,0,0,1,34.9,12.133A63.489,63.489,0,0,0,89.24,40.71h-3.4a4.412,4.412,0,0,0,0,8.824h.309A66.487,66.487,0,0,0,83.857,62.77H81.431a4.412,4.412,0,0,0,0,8.824h2.427A67.018,67.018,0,0,0,86.152,84.83h-.309a4.412,4.412,0,1,0,0,8.824h3.4a65.651,65.651,0,0,0,12.707,18.972,56.883,56.883,0,0,1-69.665,0Z" transform="translate(-1 -0.999)" fill="#fff"/>
</svg>
