<?xml version="1.0" encoding="utf-8"?>
<!-- Generator: Adobe Illustrator 22.0.1, SVG Export Plug-In . SVG Version: 6.00 Build 0)  -->
<svg version="1.1" id="Layer_1" xmlns="http://www.w3.org/2000/svg" xmlns:xlink="http://www.w3.org/1999/xlink" x="0px" y="0px"
	 viewBox="0 0 132.4 132.4" style="enable-background:new 0 0 132.4 132.4;" xml:space="preserve">
<style type="text/css">
	.st0{fill:#FFFFFF;}
</style>
<g>
	<path class="st0" d="M58.5,37.8c-0.2,13.5-7.4,22.3-13.8,30.1c-4,4.9-7.7,9.5-9.1,14.5c-5.4,19.7,7.2,25.1,7.3,25.2
		c5.9,2.8,12.7,5.4,19.5,6V36.3c-1.3,0.1-2.6,0.2-3.9,0.4C58.5,37,58.5,37.4,58.5,37.8z"/>
	<path class="st0" d="M53.1,24.1c1.7,1.4,3,3.2,3.9,5.2c1.8-0.3,3.6-0.4,5.4-0.5v-9.9c-4.5,0.4-9,1.4-13.2,3
		C50.6,22.4,51.9,23.2,53.1,24.1z"/>
	<path class="st0" d="M51,38.2C32.7,43.4,18,58.3,19.5,74.9c0.6,6.5,3.7,12.4,7.3,17.7c-0.1-4.1,0.5-8.3,1.6-12.3
		c1.8-6.5,6.2-12,10.5-17.2C44.7,56.1,50.7,48.7,51,38.2z"/>
	<path class="st0" d="M109.7,47.2c-3.4-7.6-8.7-14.3-15.4-19.2c-2.6-0.2-7.8-0.1-10.3,1.9c-0.4,0.3-0.7,0.6-0.9,1
		C93.3,33.6,102.6,39.3,109.7,47.2z"/>
	<path class="st0" d="M49.3,30.9c-0.3-0.4-0.6-0.7-1-1c-2.5-2.1-7.7-2.2-10.3-1.9c-6.7,5-12,11.6-15.4,19.2
		C29.8,39.3,39,33.6,49.3,30.9z"/>
	<path class="st0" d="M81.3,38.2c0.3,10.5,6.3,17.9,12.1,24.9c4.3,5.3,8.7,10.7,10.5,17.2c1.1,4,1.7,8.1,1.6,12.3
		c3.5-5.2,6.6-11.4,7.3-18h0C114.4,58,99.6,43.4,81.3,38.2z"/>
	<path class="st0" d="M75.4,29.3c0.9-2,2.2-3.8,3.9-5.2c1.2-1,2.5-1.7,3.9-2.3c-4.2-1.6-8.7-2.6-13.2-3v9.9
		C71.8,28.8,73.6,29,75.4,29.3L75.4,29.3z"/>
	<path class="st0" d="M87.6,67.9C81.2,60.1,74,51.2,73.8,37.8c0-0.4,0-0.7,0-1.1c-1.3-0.2-2.6-0.3-3.9-0.4v77.3
		c7.3-0.6,13.8-3.1,20-6.3h0c0.5-0.2,12.1-5.5,6.8-24.9C95.4,77.3,91.6,72.7,87.6,67.9z"/>
	<path class="st0" d="M66.2,0C29.6,0,0,29.6,0,66.2s29.6,66.2,66.2,66.2s66.2-29.6,66.2-66.2S102.7,0,66.2,0z M66.2,121.2
		c-30.4,0-55-24.6-55-55s24.6-55,55-55c30.4,0,55,24.6,55,55C121.2,96.6,96.6,121.2,66.2,121.2z"/>
</g>
</svg>
