<svg xmlns="http://www.w3.org/2000/svg" width="150" height="133.673" viewBox="0 0 150 133.673">
  <path id="icon-tshirt" d="M173.627,87.676,147.07,53.628a5.222,5.222,0,0,0-4.121-2.028h-22.7a5.267,5.267,0,0,0-4.186,2.093,17.76,17.76,0,0,1-28.455,0A5.22,5.22,0,0,0,83.422,51.6H60.4a5.222,5.222,0,0,0-4.121,2.028L29.717,87.676a14.452,14.452,0,0,0,3.238,20.8l21.227,14.555a4.773,4.773,0,0,0,.981.523v47.294a14.405,14.405,0,0,0,14.424,14.424h64.465a14.405,14.405,0,0,0,14.424-14.424V123.392a4.189,4.189,0,0,0,.654-.36s12.559-8.6,21.227-14.555a14.542,14.542,0,0,0,6.116-9.714A14.23,14.23,0,0,0,173.627,87.676Zm-7.457,9.485a4.059,4.059,0,0,1-1.668,2.682L148.541,110.8V94.806a5.233,5.233,0,0,0-10.466,0v76.043a4.02,4.02,0,0,1-3.99,3.99h-64.5a4.02,4.02,0,0,1-3.99-3.99V94.806a5.233,5.233,0,0,0-10.466,0v16.223L38.875,99.843a3.941,3.941,0,0,1-1.668-2.682,4.034,4.034,0,0,1,.785-3.042L62.98,62.1H81a28.216,28.216,0,0,0,41.734,0H140.43l24.988,32.02A4.159,4.159,0,0,1,166.17,97.161Z" transform="translate(-26.664 -51.6)" fill="#fff" fill-rule="evenodd"/>
</svg>
