<?xml version="1.0" encoding="utf-8"?>
<!-- Generator: Adobe Illustrator 22.0.1, SVG Export Plug-In . SVG Version: 6.00 Build 0)  -->
<svg version="1.1" id="Layer_1" xmlns="http://www.w3.org/2000/svg" xmlns:xlink="http://www.w3.org/1999/xlink" x="0px" y="0px"
	 viewBox="0 0 132.4 132.4" style="enable-background:new 0 0 132.4 132.4;" xml:space="preserve">
<style type="text/css">
	.st0{fill:#FFFFFF;}
</style>
<g>
	<path class="st0" d="M39.3,85.5L39.3,85.5c2.1,3,4.7,5.6,7.7,7.7l10.5-18.1L39.3,85.5z"/>
	<path class="st0" d="M63,99.2v-21L52.5,96.4C55.8,97.9,59.4,98.9,63,99.2z"/>
	<path class="st0" d="M63,54.2v-21c-3.6,0.4-7.2,1.3-10.5,2.8L63,54.2z"/>
	<path class="st0" d="M47,39.3c-3,2.1-5.6,4.7-7.7,7.7l18.1,10.5L47,39.3z"/>
	<path class="st0" d="M33.2,69.5c0.4,3.6,1.3,7.2,2.8,10.5l18.1-10.5H33.2z"/>
	<path class="st0" d="M66.2,63.1c-1.7,0-3.2,1.4-3.2,3.2c0,1.7,1.4,3.2,3.2,3.2v0c1.7,0,3.2-1.4,3.2-3.2
		C69.4,64.5,68,63.1,66.2,63.1z"/>
	<path class="st0" d="M93.2,47c-2.1-3-4.7-5.6-7.7-7.7L75.1,57.4L93.2,47z"/>
	<path class="st0" d="M36.1,52.5c-1.5,3.3-2.5,6.9-2.8,10.5h21L36.1,52.5z"/>
	<path class="st0" d="M99.2,63c-0.4-3.6-1.3-7.2-2.8-10.5L78.3,63H99.2z"/>
	<path class="st0" d="M66.2,0C29.6,0,0,29.6,0,66.2s29.6,66.2,66.2,66.2s66.2-29.6,66.2-66.2S102.7,0,66.2,0z M120.2,77.4l-1.7,6.2
		l-2-0.5c-0.8,2.4-1.7,4.6-2.8,6.9l1.8,1l-3.2,5.6l-1.8-1.1c-1.4,2.1-2.9,4-4.5,5.9l1.5,1.5l-4.6,4.6l-1.5-1.5
		c-1.9,1.6-3.8,3.2-5.9,4.5l1.1,1.8l-5.6,3.2l-1-1.8c-2.2,1.1-4.5,2.1-6.9,2.8l0.5,2l-6.2,1.7l-0.5-2c-2.4,0.5-4.9,0.8-7.4,0.9v2.1
		H63v-2.1c-2.5-0.1-4.9-0.5-7.4-0.9l-0.5,2l-6.2-1.7l0.5-2c-2.4-0.8-4.6-1.7-6.9-2.8l-1,1.8l-5.6-3.2l1.1-1.8
		c-2.1-1.4-4-2.9-5.9-4.5l-1.5,1.5l-4.6-4.6l1.5-1.5c-1.6-1.9-3.2-3.8-4.5-5.9l-1.8,1.1L17,91l1.8-1c-1.1-2.2-2.1-4.5-2.8-6.9
		l-2,0.5l-1.7-6.2l2-0.5c-0.5-2.4-0.8-4.9-0.9-7.4h-2.1V63h2.1c0.1-2.5,0.5-4.9,1-7.4l-2-0.5l1.7-6.2l2,0.5c0.8-2.4,1.7-4.6,2.8-6.9
		l-1.8-1l3.2-5.6L22,37c1.4-2.1,2.9-4,4.5-5.9l-1.5-1.5l4.6-4.6l1.5,1.5c1.9-1.6,3.8-3.2,5.9-4.5l-1.1-1.8l5.6-3.2l1,1.8
		c2.2-1.1,4.5-2.1,6.9-2.8l-0.5-2l6.2-1.7l0.5,2c2.4-0.5,4.9-0.8,7.4-0.9v-2.1h6.5v2.1c2.5,0.2,5,0.5,7.4,1l0.5-2l6.2,1.7l-0.5,2
		c2.4,0.8,4.6,1.7,6.9,2.8l1-1.8l5.6,3.2L95.5,22c2.1,1.4,4,2.9,5.9,4.5l1.5-1.5l4.6,4.6l-1.5,1.5c1.6,1.9,3.2,3.8,4.5,5.9l1.8-1.1
		l3.2,5.6l-1.8,1c1.1,2.2,2.1,4.5,2.8,6.9l2-0.5l1.7,6.2l-2,0.5c0.5,2.4,0.8,4.9,0.9,7.4h2.1v6.4h-2.1c-0.1,2.5-0.5,4.9-0.9,7.4
		L120.2,77.4z"/>
	<path class="st0" d="M80,36.1c-3.3-1.5-6.9-2.5-10.5-2.8l0,21L80,36.1z"/>
	<path class="st0" d="M96.4,80c1.5-3.3,2.5-6.9,2.8-10.5h-21L96.4,80z"/>
	<path class="st0" d="M33.3,33.3c-18.2,18.2-18.2,47.7,0,65.9s47.7,18.2,65.9,0l0,0c0,0,0.1-0.1,0.1-0.1
		c18.2-18.2,18.1-47.7-0.1-65.9C81,15,51.5,15.1,33.3,33.3z M66.2,105.8c-21.9,0-39.6-17.7-39.6-39.6c0-21.9,17.7-39.6,39.6-39.6
		c21.9,0,39.6,17.7,39.6,39.6C105.8,88.1,88.1,105.8,66.2,105.8z"/>
	<path class="st0" d="M85.5,93.2c3-2.1,5.6-4.7,7.7-7.7L75.1,75.1L85.5,93.2z"/>
	<path class="st0" d="M69.5,99.2c3.6-0.4,7.2-1.3,10.5-2.8L69.5,78.3V99.2z"/>
</g>
</svg>
