<svg xmlns="http://www.w3.org/2000/svg" width="150" height="194.789" viewBox="0 0 150 194.789">
  <path id="icon-jacket" d="M149.836,170.4l-15.315-84.92a30.1,30.1,0,0,0-28.609-24.51A26.434,26.434,0,0,0,108.2,49.312c0-13.148-3.25-25.388-9.166-34.466C92.793,5.271,84.243,0,74.931,0s-17.862,5.271-24.1,14.817c-5.915,9.078-9.166,21.318-9.166,34.466A26.942,26.942,0,0,0,43.95,60.937,30.1,30.1,0,0,0,15.34,85.476L.026,170.4A4.415,4.415,0,0,0,3.6,175.521a3.6,3.6,0,0,0,.791.059H21.168l-1.9,14.231a4.413,4.413,0,0,0,3.777,4.949,3.925,3.925,0,0,0,.586.029H126.264a4.437,4.437,0,0,0,4.422-4.422,6.662,6.662,0,0,0-.059-.761l-2.43-14.085h17.335a4.437,4.437,0,0,0,4.422-4.422A3.886,3.886,0,0,1,149.836,170.4Zm-9.634-3.631H126.615l-.7-4.012H139.47ZM74.931,8.814c6.237,0,12.152,3.836,16.72,10.835,4.978,7.672,7.731,18.185,7.731,29.663,0,5.447-1.259,8.931-4.1,11.157a13.272,13.272,0,0,0,.088-1.523V42.9a40.188,40.188,0,0,0-5.271-19c-4.07-7.145-9.458-11.069-15.168-11.069s-11.1,3.924-15.168,11.069a40.188,40.188,0,0,0-5.271,19V58.946a12.9,12.9,0,0,0,.088,1.523c-2.84-2.225-4.1-5.71-4.1-11.157,0-11.479,2.753-21.991,7.731-29.663C62.779,12.65,68.694,8.814,74.931,8.814Zm36.9,93.822a6.661,6.661,0,0,0-.761.059,4.413,4.413,0,0,0-3.6,5.1L120.993,186H85.766V75.491a17.168,17.168,0,0,1,4.012,11.04V94.2a4.422,4.422,0,0,0,8.843,0V86.531A25.814,25.814,0,0,0,93.5,71.04a27.1,27.1,0,0,0,3.338-1.288h8.141a21.272,21.272,0,0,1,20.879,17.306l12.035,66.882h-13.47L116.161,106.3A4.4,4.4,0,0,0,111.827,102.636ZM63.306,42.9c0-9.517,6.413-21.259,11.625-21.259S86.556,33.353,86.556,42.9V58.946a5.246,5.246,0,0,1-3.69,4.978c-2.225.146-4.832.234-7.936.234s-5.71-.088-7.936-.234a5.246,5.246,0,0,1-3.69-4.978V42.9ZM44.916,69.752h8.141a27.1,27.1,0,0,0,3.338,1.288A26.074,26.074,0,0,0,51.27,86.531V94.2a4.422,4.422,0,0,0,8.843,0V86.531a17.168,17.168,0,0,1,4.012-11.04V186H28.664l10.542-78.39a4.413,4.413,0,0,0-3.777-4.949,4.124,4.124,0,0,0-.586-.029,4.416,4.416,0,0,0-4.363,3.836L24.067,153.94H11.973L24.037,87.087A21.246,21.246,0,0,1,44.916,69.752ZM72.94,72.943h3.982V186H72.91V72.943ZM22.9,162.754l-.527,4.012H9.66l.732-4.012Zm19.18,17.95h0a3.208,3.208,0,0,0,3.895-2.313h0l6.413-25.652a3.214,3.214,0,0,0-6.237-1.552l-6.413,25.652A3.233,3.233,0,0,0,42.076,180.7Zm57.746-31.918a3.2,3.2,0,0,0-2.372,3.865v.059l6.413,25.652a3.2,3.2,0,0,0,6.208-1.552l-6.413-25.652A3.157,3.157,0,0,0,99.821,148.786Z" transform="translate(0.047)" fill="#fff"/>
</svg>
