<?xml version="1.0" encoding="utf-8"?>
<!-- Generator: Adobe Illustrator 22.0.1, SVG Export Plug-In . SVG Version: 6.00 Build 0)  -->
<svg version="1.1" id="Layer_1" xmlns="http://www.w3.org/2000/svg" xmlns:xlink="http://www.w3.org/1999/xlink" x="0px" y="0px"
	 viewBox="0 0 419 80.1" style="enable-background:new 0 0 419 80.1;" xml:space="preserve">
<g id="kalosph-inquiry" transform="translate(-750.523 -82.005)">
	<path id="kalos-logo" d="M790.9,135.6h-36l2.8,5.3l-0.9,2.5c-0.3,0.9,0.1,1.8,1,2.1l19,10.4H755c-1.4,0-2.7,0.9-3.2,2.3l-1.3,3.7
		h31.2c2.2,0,4.3-1.2,4.8-2.6l1.8-5.3c0.3-0.9-0.1-1.8-1-2.1L769,141.5c7.6,0,3.5,0,21.2,0c1.2,0,2.3-0.7,2.9-1.7L790.9,135.6z
		 M829.6,135.6h-36.2l2.8,5.3l-7.3,21.1h8c2.2,0,4.3-1.2,4.8-2.6l1.9-5.3h20.7c2.2,0,4.3-1.2,4.8-2.6l3.5-10.1L829.6,135.6z
		 M818.1,148.8h-12.7l2.8-8.1h12.7L818.1,148.8z M867.2,135.5c-12.7,0-22.1,0.2-35.1,0.2l2.8,5.3l-6.4,18.4c-0.5,1.4,0.9,2.6,3,2.6
		h27.6c1.7,0,3.3-0.6,4.4-1.9l6.6-19L867.2,135.5z M853.1,156.9h-11.7l5.6-16h11.7L853.1,156.9z M907.3,142.8l-4.1-7.3
		c-19.7,0-29.9,0-33.5,0l2.8,5.3l-7.3,21.1h9.9c1,0.1,1.9-0.4,2.4-1.3l2.3-6.6h3.4c1.1-0.1,2.3,0.4,2.9,1.3l3.1,5.5
		c0.7,0.9,1.8,1.4,2.9,1.3h9.7l-4.4-8h3.1c2.2,0,4.3-1.2,4.8-2.6l3-8.5C908.4,142.8,907.3,142.8,907.3,142.8z M894.4,148.7h-12.7
		l2.8-8h12.7L894.4,148.7z M942.6,135.6h-36.9l2.9,5.2h11.7L913,162h9.9c1,0.1,1.9-0.4,2.4-1.3l6.9-19.9h7.8c1.6,0,3.2-0.6,4.3-1.7
		L942.6,135.6z M981,135.6h-35.9l2.8,5.3l-0.9,2.5c-0.3,0.9,0.1,1.8,1,2.1l19,10.4h-21.9c-1.4,0-2.7,0.9-3.2,2.3l-1.3,3.7h31.2
		c2.2,0,4.3-1.2,4.8-2.6l1.8-5.3c0.3-0.9-0.1-1.8-1-2.1l-18.3-10.4c7.6,0,3.5,0,21.2,0c1.2,0,2.3-0.6,2.9-1.6L981,135.6z
		 M1037.4,135.6h-3.2c-0.8,0-1.6,0.3-2.2,0.9l-10.3,13l-1.3-13.9h-8.2c-1.7,0-3.3,0.6-4.4,1.9l-9.5,12.1l-1.2-13
		c-0.1-0.6-0.7-0.9-1.6-0.9h-12l2.8,5.3l1.8,19.2c0.1,1.1,1.4,1.9,3.1,1.9h5.4c1.7,0,3.3-0.6,4.4-1.9l9.4-11.9l1.1,11.9
		c0.1,1.1,1.4,1.9,3.1,1.9h5.4c1.7,0,3.3-0.6,4.4-1.9l15.4-19.6L1037.4,135.6z M1039.8,135.6l2.8,5.3l-6.4,18.4
		c-0.5,1.4,0.9,2.6,3,2.6h23.6l5.4-5.3H1051c-1.1,0-1.8-0.6-1.5-1.3l1.4-3.9h13.3c2.2,0,4.3-1.2,4.8-2.6l0.9-2.7h-15.3
		c-1.1,0-1.8-0.6-1.5-1.3l1.4-3.9h18.1c2.2,0,4.3-1.2,4.8-2.6l0.9-2.7C1064.3,135.6,1054.2,135.6,1039.8,135.6L1039.8,135.6z
		 M1104.8,137.1c-0.3-0.9-1.5-1.6-3.1-1.6h-17.5l2.8,5.3l-21.4,21.1h11.8l5.1-5.2h17l1.5,5.2h6l3-8.6L1104.8,137.1z M1087.8,151.5
		l7.8-7.9l2.3,7.9H1087.8z M1154,138.3l-4.6,13.2c-0.5,1.4-2.7,2.6-4.8,2.6h-3.1l4.4,8h-9.7c-1.1,0.1-2.3-0.4-2.9-1.3l-3.1-5.5
		c-0.7-0.9-1.8-1.4-2.9-1.3h-3.4l-2.3,6.6c-0.5,0.9-1.4,1.4-2.4,1.3h-9.9l7.3-21.1l-2.8-5.3c3.9,0,15.1,0,37.3,0
		C1153,135.6,1154.5,136.7,1154,138.3z M1141.2,140.8h-12.8l-2.8,8h12.7L1141.2,140.8z M810.3,106.2l8.7,15.9l-8.3,8.1h-4.8
		c-2.5,0-4.6-0.9-5.4-2.3l-10.6-19.3l0,0c-2.7,7.9-5.3,15.3-6.7,19.3c-0.5,1.3-2.4,2.4-4.4,2.4h-18.1L774,91.8l-5.2-9.7h30.3
		c-1.6,4.5-4.5,13-7.5,21.7l0,0l24-19.3c2-1.5,4.5-2.3,7-2.3h17.6L810.3,106.2z M899,126.9l0.8-2.3l-12.9-39.7
		c-0.6-1.7-2.8-2.8-5.6-2.8h-31.9l5.2,9.7l-39.1,38.4H837l9.3-9.4h31l2.8,9.4H899C898.6,129.1,898.6,128,899,126.9L899,126.9z
		 M855.8,111.1l14.3-14.5l4.3,14.5H855.8z M954.9,129.3c-1,0.6-2.1,0.9-3.3,0.9h-46.3c-2.1,0-3.5-1.1-3-2.5l12.5-35.9l-5.2-9.7h30.3
		l-13.4,38.7h29.7l-1.4,3.9C954.3,126.2,954.3,127.8,954.9,129.3L954.9,129.3z M1031,95.7l1.1-3.2l-5.6-10.4h-61.8l5.2,9.7
		l-11.7,33.7c-0.9,2.6,1.6,4.7,5.5,4.7h50.4c1.8,0,3.6-0.4,5.3-1.2l2.2-6.2c0.8-2.2,2.2-4,4.1-5.2l5.7-16.5
		C1030.5,99.4,1030.3,97.4,1031,95.7L1031,95.7z M1002.9,120.8h-21.3l10.1-29.3h21.3L1002.9,120.8z M1035.9,91.8l-5.2-9.7h72.7
		l-2.3,6.7c-0.9,2.5-3.2,4.1-5.8,4.2c-32.2,0-24.7,0-38.6,0l33.3,18.9c1.5,0.6,2.3,2.3,1.7,3.9l-3.3,9.6c-0.9,2.6-4.9,4.7-8.8,4.7
		h-56.9l2.3-6.7c0.9-2.5,3.2-4.1,5.8-4.2h40l-34.6-19c-1.5-0.6-2.3-2.3-1.8-3.9L1035.9,91.8z M1108.3,102.9c1.7,0,3.4-0.9,3.8-2.1
		l1.5-4.2h16.4c1.7,0,3.4-0.9,3.8-2.1l3.6-10.4c0.4-1.1-0.7-2.1-2.4-2.1h-29.5l2.2,4.2l-5.8,16.6L1108.3,102.9z M1117.2,86.2h10.1
		l-2.2,6.4H1115L1117.2,86.2z M1169.5,82.1l-6.9,19.8c-0.4,0.7-1.1,1.1-1.9,1h-7.9l2.9-8.4h-9.3l-2.5,7.3c-0.4,0.7-1.1,1.1-1.9,1
		h-7.9l5.8-16.6l-2.2-4.2h13.1l-2.9,8.4h9.3l2.2-6.3c0.4-1.1,2.1-2.1,3.8-2.1l0,0L1169.5,82.1L1169.5,82.1z M1091.3,130.2l69.7-22
		l-6.7,22H1091.3z"/>
</g>
</svg>
