<?xml version="1.0" encoding="iso-8859-1"?>
<!-- Generator: Adobe Illustrator 25.0.0, SVG Export Plug-In . SVG Version: 6.00 Build 0)  -->
<svg version="1.1" id="Layer_1" xmlns="http://www.w3.org/2000/svg" xmlns:xlink="http://www.w3.org/1999/xlink" x="0px" y="0px"
	 viewBox="0 0 1328.389 253.624" style="enable-background:new 0 0 1328.389 253.624;" xml:space="preserve">
<path d="M128.1,169.609H14.105l9.017,16.838l-2.783,8.028c-0.936,2.716,0.211,5.257,3.066,6.803l60.183,32.949H14.141
	c-4.42,0-8.619,3.038-10.096,7.282L0,253.193h98.927c6.911,0,13.777-3.692,15.351-8.249l5.774-16.654
	c0.943-2.697-0.195-5.229-3.032-6.776l-57.894-32.912c24.232-0.046,11.223-0.037,67.13-0.037c3.699,0,7.246-2.117,9.16-5.303
	L128.1,169.609z M250.756,169.609H135.928l9.017,16.838l-23.131,66.745h25.256c6.911,0,13.778-3.692,15.369-8.249l5.868-16.949
	h65.664c6.902,0,13.777-3.692,15.351-8.249l11.108-32.056L250.756,169.609z M214.389,211.617H173.99l8.885-25.639h40.408
	L214.389,211.617z M369.898,169.195c-40.423,0.046-69.959,0.635-111.201,0.635l9.017,16.838l-20.282,58.496
	c-1.573,4.557,2.742,8.249,9.643,8.249h87.596c5.694,0,11.35-2.504,14.054-5.938l20.863-60.19L369.898,169.195z M325.097,237.045
	h-37.093l17.622-50.846h37.093L325.097,237.045z M497.172,192.422l-13.145-23.246c-62.452,0-94.677,0.009-106.308,0.009
	l9.018,16.829l-23.141,66.745h31.512c3.446,0,6.885-1.85,7.671-4.124l7.312-21.082h10.807c4.411,0,7.961,1.537,9.346,4.042
	l9.694,17.556c1.385,2.504,4.935,4.042,9.355,4.042h30.641l-14.038-25.428h9.796c6.911,0,13.777-3.692,15.36-8.249l9.389-27.094
	H497.172z M456.179,211.194h-40.408l8.811-25.418h40.399L456.179,211.194z M609.072,169.609h-116.87l9.255,16.369h37.224
	l-23.294,67.215h31.502c3.446,0,6.894-1.85,7.681-4.134l21.868-63.081h24.732c5.45,0,10.886-2.311,13.711-5.524L609.072,169.609z
	 M730.755,169.609H616.901l9.017,16.838l-2.783,8.028c-0.936,2.716,0.21,5.257,3.066,6.803l60.183,32.949h-69.457
	c-4.411,0-8.609,3.038-10.086,7.282l-4.054,11.683h98.936c6.902,0,13.768-3.692,15.351-8.249l5.774-16.654
	c0.934-2.697-0.195-5.229-3.033-6.776l-57.894-32.912c24.232-0.046,11.224-0.037,67.13-0.037c3.643,0,7.156-2.071,9.088-5.183
	L730.755,169.609z M909.496,169.609h-10.057c-2.781,0-5.641,1.206-7.027,2.964l-32.517,41.262l-4.198-44.227
	c-0.609,0-25.949,0-25.949,0c-5.562,0-11.284,2.421-14.054,5.938l-30.181,38.289l-3.901-41.262
	c-0.169-1.758-2.198-2.964-4.979-2.964h-38.048l9.01,16.82l5.764,60.816c0.337,3.526,4.383,5.947,9.937,5.947h17.156
	c5.562,0,11.284-2.421,14.065-5.947l29.646-37.617l3.57,37.617c0.328,3.526,4.374,5.947,9.937,5.947h17.165
	c5.553,0,11.274-2.421,14.055-5.947l48.946-62.087L909.496,169.609z M917.325,169.609l9.027,16.838l-20.273,58.496
	c-1.573,4.557,2.732,8.249,9.643,8.249h74.916l17.096-16.801H952.68c-3.446,0-5.608-1.85-4.812-4.124l4.324-12.474h42.281
	c6.911,0,13.779-3.701,15.36-8.249l2.972-8.553h-48.518c-3.456,0-5.617-1.85-4.822-4.124l4.324-12.474h57.274
	c6.911,0,13.776-3.682,15.359-8.24l2.973-8.562C995.032,169.609,962.781,169.609,917.325,169.609z M1123.421,174.526
	c-0.987-2.983-4.786-4.916-9.731-4.916h-55.419l9.017,16.838l-67.941,66.745h37.402l16.161-16.369h53.827l4.816,16.369h18.992
	l9.505-27.416L1123.421,174.526z M1069.5,220.023l24.881-25.206l7.408,25.206H1069.5z M1279.227,178.046l-14.527,41.905
	c-1.588,4.558-8.454,8.245-15.361,8.245h-9.795l14.032,25.428h-30.635c-4.418,0-7.972-1.539-9.352-4.045l-9.695-17.552
	c-1.392-2.506-4.934-4.045-9.352-4.045h-10.802l-7.311,21.084c-0.788,2.279-4.228,4.128-7.675,4.128h-31.509l23.142-66.748
	l-9.023-16.825c12.356,0,47.932-0.011,118.281-0.011C1276.2,169.61,1280.963,172.998,1279.227,178.046z M1238.632,186.207h-40.405
	l-8.809,25.416c14.444,0,23.911,0,40.405,0L1238.632,186.207z M189.387,76.264l27.842,50.413l-26.291,25.833h-15.32
	c-8.063,0-14.551-2.808-17.067-7.383l-33.659-61.203c0.002-0.018,0.005-0.037-0.011-0.065c-8.685,25.022-16.815,48.554-21.19,61.138
	c-1.435,4.134-7.709,7.512-14.002,7.512H32.2L74.424,30.721L57.961,0l96.005,0c-4.935,14.26-14.287,41.207-23.807,68.669
	c0.022-0.028,0.053-0.046,0.075-0.074l76.092-61.194c5.677-4.575,14.117-7.383,22.179-7.383l55.878,0L189.387,76.264z
	 M470.621,142.135l2.503-7.153L432.241,8.985c-1.788-5.441-8.737-8.967-17.755-8.967l-101.118,0l16.463,30.721L205.863,152.528
	h68.23l29.501-29.865h98.215l8.771,29.865h59.933C469.38,149.306,469.403,145.67,470.621,142.135z M333.852,92.007l45.415-45.985
	l13.516,45.985H333.852z M648.024,149.555c-2.881,1.814-6.7,2.974-10.521,2.974H490.761c-6.752,0-10.984-3.609-9.441-8.074
	L521.055,30.74L504.592,0.018l96.005,0l-42.512,122.645h94.029l-4.337,12.502C646.046,140.164,646.15,145.154,648.024,149.555z
	 M889.225,43.067l3.513-10.154L875.109,0.018l-196.094,0L695.47,30.74l-37.002,106.746c-2.876,8.313,4.985,15.043,17.59,15.043
	h159.834c5.946,0,11.869-1.501,16.771-3.959l6.825-19.683c2.37-6.84,7.158-12.668,13.137-16.599l18.141-52.346
	C887.789,55.071,887.135,49.106,889.225,43.067z M800.159,122.663h-67.678l32.15-92.771h67.677L800.159,122.663z M904.989,30.735
	l-16.46-30.72c96.779,0,118.238,0,230.431,0l-7.389,21.315c-2.67,7.751-10.351,13.281-18.412,13.281
	c-102.005,0-78.262-0.022-122.476,0.065l105.627,60.046c5.176,2.83,7.245,7.446,5.534,12.366l-10.539,30.393
	c-2.875,8.317-15.403,15.045-28.005,15.045H862.786l7.389-21.315c2.693-7.751,10.352-13.281,18.413-13.281h126.72L905.506,57.797
	c-5.222-2.809-7.312-7.446-5.594-12.41L904.989,30.735z M1134.279,66.052c5.457,0,10.882-2.913,12.136-6.514l4.641-13.396h51.879
	c5.456,0,10.882-2.913,12.126-6.514l11.475-33.09c1.246-3.601-2.161-6.524-7.617-6.524c-55.571,0-83.677,0-93.448,0l7.128,13.302
	l-18.274,52.736H1134.279z M1162.564,12.948h31.923l-7.021,20.259h-31.923L1162.564,12.948z M1328.389,0.024l-21.759,62.776
	c-0.622,1.792-3.339,3.253-6.063,3.253h-24.894l9.203-26.547h-29.411l-8.08,23.294c-0.621,1.792-3.339,3.253-6.063,3.253h-24.894
	l18.284-52.736l-7.128-13.302c8.535,0,33.036,0,41.571,0l-9.203,26.547h29.411l6.944-20.033c1.245-3.601,6.67-6.514,12.126-6.514
	l-0.001,0.009H1328.389z M1080.62,152.524l220.959-69.82l-21.182,69.82H1080.62z"/>
</svg>
