<svg xmlns="http://www.w3.org/2000/svg" width="418.955" height="125.995" viewBox="0 0 418.955 125.995">
  <g id="kalosph-inquiry" transform="translate(-750.523 -82.005)">
    <path id="kalos-logo" d="M40.4,53.492H4.449L7.292,58.8l-.878,2.532a1.717,1.717,0,0,0,.967,2.146L26.362,73.872H4.46a3.46,3.46,0,0,0-3.184,2.3L0,79.853H31.2c2.18,0,4.345-1.164,4.841-2.6L37.863,72a1.707,1.707,0,0,0-.956-2.137L18.647,59.482c7.642-.015,3.54-.012,21.172-.012A3.441,3.441,0,0,0,42.708,57.8Zm38.684,0H42.87l2.844,5.31-7.3,21.05h7.965c2.18,0,4.345-1.164,4.847-2.6l1.851-5.345H73.791c2.177,0,4.345-1.164,4.841-2.6l3.5-10.11ZM67.615,66.741H54.874l2.8-8.086H70.42ZM116.66,53.362c-12.749.015-22.064.2-35.071.2l2.844,5.31-6.4,18.449c-.5,1.437.865,2.6,3.041,2.6H108.7a5.886,5.886,0,0,0,4.432-1.873l6.58-18.983Zm-14.13,21.4h-11.7L96.39,58.724h11.7ZM156.8,60.687l-4.146-7.331c-19.7,0-29.86,0-33.528,0l2.844,5.308-7.3,21.05h9.938a2.612,2.612,0,0,0,2.419-1.3l2.306-6.649h3.408a3.274,3.274,0,0,1,2.948,1.275l3.057,5.537a3.277,3.277,0,0,0,2.95,1.275h9.664l-4.427-8.02h3.09c2.18,0,4.345-1.164,4.844-2.6l2.961-8.545H156.8Zm-12.929,5.92H131.128l2.779-8.016h12.741Zm48.22-13.115H155.233l2.919,5.163h11.74l-7.347,21.2h9.935a2.614,2.614,0,0,0,2.422-1.3l6.9-19.895h7.8a6.012,6.012,0,0,0,4.324-1.742Zm38.377,0H194.561l2.844,5.31-.878,2.532a1.717,1.717,0,0,0,.967,2.146l18.981,10.392H194.57a3.459,3.459,0,0,0-3.181,2.3l-1.279,3.685h31.2c2.177,0,4.342-1.164,4.841-2.6L227.976,72a1.71,1.71,0,0,0-.957-2.137L208.76,59.482c7.642-.015,3.54-.012,21.172-.012a3.45,3.45,0,0,0,2.866-1.635Zm56.372,0H283.67a2.947,2.947,0,0,0-2.216.935L271.2,67.44l-1.324-13.949H261.69a5.894,5.894,0,0,0-4.432,1.873L247.739,67.44l-1.23-13.013c-.053-.554-.693-.935-1.57-.935h-12l2.842,5.3,1.818,19.18c.106,1.112,1.382,1.876,3.134,1.876h5.411a5.9,5.9,0,0,0,4.436-1.876l9.35-11.864,1.126,11.864c.1,1.112,1.379,1.876,3.134,1.876H269.6a5.9,5.9,0,0,0,4.433-1.876L289.472,58.4Zm2.469,0,2.847,5.31-6.394,18.449c-.5,1.437.862,2.6,3.041,2.6h23.627l5.392-5.3H300.461c-1.087,0-1.769-.583-1.518-1.3l1.364-3.934h13.335c2.18,0,4.346-1.167,4.844-2.6l.937-2.7h-15.3c-1.09,0-1.772-.583-1.521-1.3l1.364-3.934h18.063c2.18,0,4.345-1.161,4.844-2.6l.938-2.7C313.818,53.492,303.647,53.492,289.311,53.492Zm65,1.551c-.311-.941-1.509-1.55-3.069-1.55H333.763l2.844,5.31-21.428,21.05h11.8l5.1-5.163h16.976l1.519,5.163h5.99l3-8.647ZM337.3,69.392l7.847-7.95,2.336,7.95ZM403.45,56.153l-4.582,13.216c-.5,1.438-2.666,2.6-4.845,2.6h-3.089l4.426,8.02H385.7a3.273,3.273,0,0,1-2.949-1.276l-3.058-5.536a3.277,3.277,0,0,0-2.949-1.276h-3.407l-2.306,6.65a2.613,2.613,0,0,1-2.421,1.3h-9.937l7.3-21.051L363.124,53.5c3.9,0,15.117,0,37.3,0C402.495,53.492,404,54.561,403.45,56.153Zm-12.8,2.574H377.9l-2.778,8.016h12.743ZM59.73,24.053l8.781,15.9L60.219,48.1H55.387c-2.543,0-4.589-.886-5.383-2.328l-10.616-19.3a.029.029,0,0,0,0-.021c-2.739,7.892-5.3,15.313-6.683,19.282-.453,1.3-2.431,2.369-4.416,2.369H10.155L23.472,9.689,18.28,0H48.559C47,4.5,44.053,13,41.05,21.657c.007-.009.017-.015.024-.023l24-19.3A11.57,11.57,0,0,1,72.067.006H89.69Zm88.7,20.775.789-2.256L136.322,2.834c-.564-1.716-2.756-2.828-5.6-2.828H98.832l5.192,9.689-39.1,38.41H86.445l9.3-9.419h30.976l2.766,9.419h18.9A4.974,4.974,0,0,1,148.427,44.827Zm-43.135-15.81,14.323-14.5,4.263,14.5Zm99.085,18.15a6.393,6.393,0,0,1-3.318.938h-46.28c-2.129,0-3.464-1.138-2.978-2.546L164.333,9.695,159.141.006h30.279l-13.408,38.68h29.655L204.3,42.629A6.234,6.234,0,0,0,204.377,47.167Zm76.071-33.585,1.108-3.2L276,.006H214.151l5.19,9.689-11.67,33.666c-.907,2.622,1.572,4.744,5.548,4.744h50.409a12.011,12.011,0,0,0,5.289-1.249l2.153-6.208a10.437,10.437,0,0,1,4.143-5.235L280.934,18.9A6.159,6.159,0,0,1,280.448,13.583Zm-28.09,25.1H231.014l10.14-29.259H262.5ZM285.42,9.693,280.229,0H352.9l-2.33,6.722a6.3,6.3,0,0,1-5.807,4.189c-32.171,0-24.683-.007-38.627.021l33.313,18.938a3.12,3.12,0,0,1,1.745,3.9l-3.324,9.586c-.907,2.623-4.858,4.745-8.832,4.745H272.11l2.33-6.722a6.305,6.305,0,0,1,5.807-4.189h39.966l-34.63-18.965a3.123,3.123,0,0,1-1.764-3.914Zm72.315,11.138c1.721,0,3.432-.919,3.828-2.054l1.464-4.225h16.362c1.721,0,3.432-.919,3.824-2.054l3.619-10.436C387.225.926,386.15,0,384.429,0H354.957l2.248,4.2-5.763,16.632Zm8.919-16.748h10.068l-2.214,6.389H364.44Zm52.3-4.076-6.862,19.8a2.067,2.067,0,0,1-1.912,1.026h-7.851l2.9-8.373h-9.276l-2.548,7.347a2.066,2.066,0,0,1-1.912,1.026h-7.851L389.41,4.2,387.162,0h13.111l-2.9,8.373h9.276l2.19-6.318C409.229.923,410.94,0,412.661,0v0h6.294ZM340.812,48.1,410.5,26.084,403.818,48.1Z" transform="translate(750.523 82.005)"/>
    <text id="INQUIRE" transform="translate(959 198)" font-size="34" font-family="MonumentExtended-Regular, Monument" letter-spacing="1em"><tspan x="-188.343" y="0">INQUIRE</tspan></text>
  </g>
</svg>
