<svg xmlns="http://www.w3.org/2000/svg" width="359.458" height="68.63" viewBox="0 0 359.458 68.63">
  <path id="kalos-sportswear-footer" d="M34.663,45.9H3.817l2.44,4.556L5.5,52.624a1.473,1.473,0,0,0,.83,1.841l16.285,8.916H3.827a2.969,2.969,0,0,0-2.732,1.97L0,68.513H26.769c1.87,0,3.728-1,4.154-2.232l1.562-4.507a1.465,1.465,0,0,0-.82-1.834L16,51.035c6.557-.012,3.037-.01,18.165-.01a2.952,2.952,0,0,0,2.479-1.435Zm33.19,0H36.782l2.44,4.556L32.962,68.513H39.8c1.87,0,3.728-1,4.159-2.232l1.588-4.586H63.312c1.868,0,3.728-1,4.154-2.232l3.006-8.674ZM58.013,57.263H47.081l2.4-6.938H60.42Zm42.08-11.479c-10.938.012-18.931.172-30.091.172l2.44,4.556L66.954,66.341c-.426,1.233.742,2.232,2.609,2.232h23.7a5.05,5.05,0,0,0,3.8-1.607l5.645-16.287ZM87.97,64.144H77.933L82.7,50.385H92.739Zm46.563-12.075-3.557-6.29c-16.9,0-25.619,0-28.767,0l2.44,4.554L98.388,68.4h8.527a2.241,2.241,0,0,0,2.076-1.116l1.979-5.7h2.924a2.809,2.809,0,0,1,2.529,1.094l2.623,4.751a2.812,2.812,0,0,0,2.531,1.094h8.291l-3.8-6.881h2.651c1.87,0,3.728-1,4.156-2.232l2.541-7.332h-.885Zm-11.093,5.08H112.506l2.384-6.878h10.932ZM164.813,45.9H133.188l2.5,4.429h10.073l-6.3,18.188h8.524a2.243,2.243,0,0,0,2.078-1.119l5.917-17.07h6.692a5.159,5.159,0,0,0,3.71-1.495Zm32.927,0H166.932l2.44,4.556-.753,2.172a1.473,1.473,0,0,0,.83,1.841l16.285,8.916H166.939a2.968,2.968,0,0,0-2.729,1.97l-1.1,3.161h26.772c1.868,0,3.726-1,4.154-2.232l1.562-4.507a1.467,1.467,0,0,0-.821-1.834l-15.666-8.906c6.557-.012,3.037-.01,18.165-.01a2.96,2.96,0,0,0,2.459-1.4Zm48.367,0h-2.721a2.529,2.529,0,0,0-1.9.8l-8.8,11.165L231.549,45.9h-7.022a5.057,5.057,0,0,0-3.8,1.607l-8.167,10.361L211.5,46.7c-.046-.476-.595-.8-1.347-.8h-10.3l2.438,4.551,1.56,16.457c.091.954,1.186,1.609,2.689,1.609h4.642a5.062,5.062,0,0,0,3.806-1.609l8.022-10.179.966,10.179c.089.954,1.184,1.609,2.689,1.609h4.645a5.059,5.059,0,0,0,3.8-1.609l13.245-16.8Zm2.119,0,2.443,4.556-5.486,15.829c-.426,1.233.739,2.232,2.609,2.232h20.272l4.626-4.546h-14.9c-.932,0-1.518-.5-1.3-1.116l1.17-3.375H269.1c1.87,0,3.729-1,4.156-2.232l.8-2.314H260.933c-.935,0-1.52-.5-1.3-1.116l1.17-3.375h15.5c1.87,0,3.728-1,4.156-2.23l.8-2.317C269.253,45.9,260.526,45.9,248.225,45.9Zm55.769,1.331c-.267-.807-1.3-1.33-2.633-1.33h-15l2.44,4.556L270.42,68.513h10.121l4.373-4.429h14.565l1.3,4.429h5.139l2.572-7.419ZM289.4,59.538l6.733-6.821,2,6.821Zm56.752-11.359-3.931,11.339c-.43,1.233-2.288,2.231-4.157,2.231h-2.651l3.8,6.881h-8.29a2.808,2.808,0,0,1-2.531-1.095l-2.623-4.75a2.812,2.812,0,0,0-2.531-1.095h-2.923L318.339,67.4a2.242,2.242,0,0,1-2.077,1.117h-8.526L314,50.452,311.556,45.9c3.344,0,12.97,0,32.006,0C345.336,45.9,346.624,46.813,346.156,48.179ZM335.17,50.387H324.236l-2.384,6.877h10.933ZM51.248,20.637l7.534,13.642-7.114,6.99H47.522c-2.182,0-3.937-.76-4.618-2L33.8,22.71a.025.025,0,0,0,0-.018c-2.35,6.771-4.55,13.139-5.734,16.544-.388,1.119-2.086,2.033-3.789,2.033H8.713L20.139,8.313,15.684,0H41.663C40.327,3.859,37.8,11.15,35.221,18.582c.006-.008.014-.012.02-.02L55.831,2a9.927,9.927,0,0,1,6-2h15.12Zm76.1,17.824.677-1.936L116.963,2.431C116.479.959,114.6,0,112.159,0H84.8l4.455,8.313L55.706,41.274H74.169l7.983-8.081h26.577l2.373,8.081h16.218A4.267,4.267,0,0,1,127.349,38.461ZM90.339,24.9l12.289-12.443L106.286,24.9Zm85.014,15.572a5.485,5.485,0,0,1-2.847.8H132.8c-1.827,0-2.972-.977-2.555-2.185L141,8.318,136.541,0H162.52l-11.5,33.187H176.46l-1.174,3.383A5.349,5.349,0,0,0,175.353,40.469Zm65.268-28.815.951-2.748L236.8,0H183.739l4.453,8.313L178.179,37.2c-.778,2.249,1.349,4.071,4.76,4.071H226.19a10.305,10.305,0,0,0,4.538-1.071l1.847-5.326a8.955,8.955,0,0,1,3.555-4.492l4.909-14.165A5.284,5.284,0,0,1,240.622,11.654Zm-24.1,21.538H198.207l8.7-25.1H225.22ZM244.887,8.317,240.433,0h62.354l-2,5.768a5.4,5.4,0,0,1-4.982,3.594c-27.6,0-21.177-.006-33.142.018l28.582,16.248a2.677,2.677,0,0,1,1.5,3.346L289.892,37.2c-.778,2.251-4.168,4.071-7.578,4.071H233.467l2-5.768a5.41,5.41,0,0,1,4.983-3.594h34.29L245.027,15.64a2.679,2.679,0,0,1-1.514-3.358Zm62.045,9.557c1.477,0,2.945-.788,3.284-1.763l1.256-3.625h14.038c1.476,0,2.945-.788,3.281-1.763L331.9,1.769C332.234.795,331.312,0,329.836,0H304.549l1.929,3.6-4.945,14.27ZM314.585,3.5h8.638l-1.9,5.482h-8.638Zm44.873-3.5L353.57,16.993a1.773,1.773,0,0,1-1.641.88h-6.736l2.49-7.184h-7.959l-2.186,6.3a1.773,1.773,0,0,1-1.641.88h-6.736L334.11,3.6,332.181,0H343.43l-2.49,7.184H348.9l1.879-5.421C351.114.792,352.582,0,354.058,0v0h5.4ZM292.412,41.273,352.2,22.379l-5.732,18.893Z" fill="#fff"/>
</svg>
