<?xml version="1.0" encoding="utf-8"?>
<!-- Generator: Adobe Illustrator 25.0.0, SVG Export Plug-In . SVG Version: 6.00 Build 0)  -->
<svg version="1.1" id="Layer_1" xmlns="http://www.w3.org/2000/svg" xmlns:xlink="http://www.w3.org/1999/xlink" x="0px" y="0px"
	 viewBox="0 0 419 126" style="enable-background:new 0 0 419 126;" xml:space="preserve">
<style type="text/css">
	.st0{enable-background:new    ;}
</style>
<g id="kalosph-inquiry" transform="translate(-750.523 -82.005)">
	<path id="kalos-logo" d="M790.9,135.5h-36l2.8,5.3l-0.9,2.5c-0.3,0.9,0.1,1.8,1,2.1l19,10.4H755c-1.4,0-2.7,0.9-3.2,2.3l-1.3,3.7
		h31.2c2.2,0,4.3-1.2,4.8-2.6l1.8-5.3c0.3-0.9-0.1-1.8-1-2.1l-18.3-10.4c7.6,0,3.5,0,21.2,0c1.2,0,2.3-0.7,2.9-1.7L790.9,135.5z
		 M829.6,135.5h-36.2l2.8,5.3l-7.3,21.1h8c2.2,0,4.3-1.2,4.8-2.6l1.9-5.3h20.7c2.2,0,4.3-1.2,4.8-2.6l3.5-10.1L829.6,135.5z
		 M818.1,148.7h-12.7l2.8-8.1h12.7L818.1,148.7z M867.2,135.4c-12.7,0-22.1,0.2-35.1,0.2l2.8,5.3l-6.4,18.4c-0.5,1.4,0.9,2.6,3,2.6
		h27.6c1.7,0,3.3-0.6,4.4-1.9l6.6-19L867.2,135.4z M853.1,156.8h-11.7l5.6-16h11.7L853.1,156.8z M907.3,142.7l-4.1-7.3
		c-19.7,0-29.9,0-33.5,0l2.8,5.3l-7.3,21.1h9.9c1,0.1,1.9-0.4,2.4-1.3l2.3-6.6h3.4c1.1-0.1,2.3,0.4,2.9,1.3l3.1,5.5
		c0.7,0.9,1.8,1.4,2.9,1.3h9.7l-4.4-8h3.1c2.2,0,4.3-1.2,4.8-2.6l3-8.5C908.4,142.7,907.3,142.7,907.3,142.7z M894.4,148.6h-12.7
		l2.8-8h12.7L894.4,148.6z M942.6,135.5h-36.9l2.9,5.2h11.7l-7.3,21.2h9.9c1,0.1,1.9-0.4,2.4-1.3l6.9-19.9h7.8
		c1.6,0,3.2-0.6,4.3-1.7L942.6,135.5z M981,135.5h-35.9l2.8,5.3l-0.9,2.5c-0.3,0.9,0.1,1.8,1,2.1l19,10.4h-21.9
		c-1.4,0-2.7,0.9-3.2,2.3l-1.3,3.7h31.2c2.2,0,4.3-1.2,4.8-2.6l1.8-5.3c0.3-0.9-0.1-1.8-1-2.1l-18.3-10.4c7.6,0,3.5,0,21.2,0
		c1.2,0,2.3-0.6,2.9-1.6L981,135.5z M1037.4,135.5h-3.2c-0.8,0-1.6,0.3-2.2,0.9l-10.3,13l-1.3-13.9h-8.2c-1.7,0-3.3,0.6-4.4,1.9
		l-9.5,12.1l-1.2-13c-0.1-0.6-0.7-0.9-1.6-0.9h-12l2.8,5.3l1.8,19.2c0.1,1.1,1.4,1.9,3.1,1.9h5.4c1.7,0,3.3-0.6,4.4-1.9l9.4-11.9
		l1.1,11.9c0.1,1.1,1.4,1.9,3.1,1.9h5.4c1.7,0,3.3-0.6,4.4-1.9l15.4-19.6L1037.4,135.5z M1039.8,135.5l2.8,5.3l-6.4,18.4
		c-0.5,1.4,0.9,2.6,3,2.6h23.6l5.4-5.3H1051c-1.1,0-1.8-0.6-1.5-1.3l1.4-3.9h13.3c2.2,0,4.3-1.2,4.8-2.6l0.9-2.7h-15.3
		c-1.1,0-1.8-0.6-1.5-1.3l1.4-3.9h18.1c2.2,0,4.3-1.2,4.8-2.6l0.9-2.7C1064.3,135.5,1054.2,135.5,1039.8,135.5L1039.8,135.5z
		 M1104.8,137c-0.3-0.9-1.5-1.6-3.1-1.6h-17.5l2.8,5.3l-21.4,21.1h11.8l5.1-5.2h17l1.5,5.2h6l3-8.6L1104.8,137z M1087.8,151.4
		l7.8-7.9l2.3,7.9H1087.8z M1154,138.2l-4.6,13.2c-0.5,1.4-2.7,2.6-4.8,2.6h-3.1l4.4,8h-9.7c-1.1,0.1-2.3-0.4-2.9-1.3l-3.1-5.5
		c-0.7-0.9-1.8-1.4-2.9-1.3h-3.4l-2.3,6.6c-0.5,0.9-1.4,1.4-2.4,1.3h-9.9l7.3-21.1l-2.8-5.3c3.9,0,15.1,0,37.3,0
		C1153,135.5,1154.5,136.6,1154,138.2z M1141.2,140.7h-12.8l-2.8,8h12.7L1141.2,140.7z M810.3,106.1L819,122l-8.3,8.1h-4.8
		c-2.5,0-4.6-0.9-5.4-2.3l-10.6-19.3c0,0,0,0,0,0c-2.7,7.9-5.3,15.3-6.7,19.3c-0.5,1.3-2.4,2.4-4.4,2.4h-18.1L774,91.7l-5.2-9.7
		h30.3c-1.6,4.5-4.5,13-7.5,21.7c0,0,0,0,0,0l24-19.3c2-1.5,4.5-2.3,7-2.3h17.6L810.3,106.1z M899,126.8l0.8-2.3l-12.9-39.7
		c-0.6-1.7-2.8-2.8-5.6-2.8h-31.9l5.2,9.7l-39.1,38.4H837l9.3-9.4h31l2.8,9.4h18.9C898.6,129,898.6,127.9,899,126.8L899,126.8z
		 M855.8,111l14.3-14.5l4.3,14.5H855.8z M954.9,129.2c-1,0.6-2.1,0.9-3.3,0.9h-46.3c-2.1,0-3.5-1.1-3-2.5l12.5-35.9l-5.2-9.7h30.3
		l-13.4,38.7h29.7l-1.4,3.9C954.3,126.1,954.3,127.7,954.9,129.2L954.9,129.2z M1031,95.6l1.1-3.2l-5.6-10.4h-61.8l5.2,9.7
		l-11.7,33.7c-0.9,2.6,1.6,4.7,5.5,4.7h50.4c1.8,0,3.6-0.4,5.3-1.2l2.2-6.2c0.8-2.2,2.2-4,4.1-5.2l5.7-16.5
		C1030.5,99.3,1030.3,97.3,1031,95.6L1031,95.6z M1002.9,120.7h-21.3l10.1-29.3h21.3L1002.9,120.7z M1035.9,91.7l-5.2-9.7h72.7
		l-2.3,6.7c-0.9,2.5-3.2,4.1-5.8,4.2c-32.2,0-24.7,0-38.6,0l33.3,18.9c1.5,0.6,2.3,2.3,1.7,3.9l-3.3,9.6c-0.9,2.6-4.9,4.7-8.8,4.7
		h-56.9l2.3-6.7c0.9-2.5,3.2-4.1,5.8-4.2h40l-34.6-19c-1.5-0.6-2.3-2.3-1.8-3.9L1035.9,91.7z M1108.3,102.8c1.7,0,3.4-0.9,3.8-2.1
		l1.5-4.2h16.4c1.7,0,3.4-0.9,3.8-2.1l3.6-10.4c0.4-1.1-0.7-2.1-2.4-2.1h-29.5l2.2,4.2l-5.8,16.6L1108.3,102.8z M1117.2,86.1h10.1
		l-2.2,6.4H1115L1117.2,86.1z M1169.5,82l-6.9,19.8c-0.4,0.7-1.1,1.1-1.9,1h-7.9l2.9-8.4h-9.3l-2.5,7.3c-0.4,0.7-1.1,1.1-1.9,1h-7.9
		l5.8-16.6l-2.2-4.2h13.1l-2.9,8.4h9.3l2.2-6.3c0.4-1.1,2.1-2.1,3.8-2.1l0,0L1169.5,82L1169.5,82z M1091.3,130.1l69.7-22l-6.7,22
		H1091.3z"/>
	<g class="st0">
		<path d="M778.2,198h-6.1v-23.8h6.1V198z"/>
		<path d="M845.6,174.2V198h-8.3l-16.2-17.8V198H815v-23.8h8.3l16.3,17.9v-17.9H845.6z"/>
		<path d="M909.3,201l-4.1-4.1c-2.2,1-5.1,1.4-8.6,1.4c-10.5,0-15-4.4-15-12.3c0-7.9,4.5-12.2,15-12.2c10.4,0,15,4.4,15,12.2
			c0,2.7-0.5,5-1.7,6.9l3.7,3.7L909.3,201z M896.6,193.2c6.4,0,8.8-2.3,8.8-7.1c0-4.8-2.4-7.1-8.8-7.1c-6.4,0-8.8,2.2-8.8,7.1
			C887.8,191,890.3,193.2,896.6,193.2z"/>
		<path d="M962.9,198.3c-10.5,0-15-4-15-12.3v-11.9h6.1v11.9c0,3.3,0.9,7.1,8.8,7.1c7.9,0,8.8-3.8,8.8-7.1v-11.9h6.1v11.9
			C977.8,194.3,973.3,198.3,962.9,198.3z"/>
		<path d="M1020.5,198h-6.1v-23.8h6.1V198z"/>
		<path d="M1079.9,190.9l4.4,7.1h-7.2l-3.8-6.4h-9.9v6.4h-6.1v-23.8h18.7c5.4,0,9.1,3.4,9.1,8.7
			C1085.1,186.8,1083.1,189.7,1079.9,190.9z M1063.4,186.5h10.9c1.8,0,4.7,0,4.7-3.6c0-3.6-2.9-3.6-4.7-3.6h-10.9V186.5z"/>
		<path d="M1127.2,179.1v4.8h19v4.4h-19v4.8h19v4.9h-25.2v-23.8h25.2v4.9H1127.2z"/>
	</g>
</g>
</svg>
