<svg xmlns="http://www.w3.org/2000/svg" width="414" height="349.986" viewBox="0 0 414 349.986">
  <path id="owl-emblem" d="M153.209,101.768a26.731,26.731,0,0,0-.814,7.305c.025.892.1,1.771.208,2.636a24.682,24.682,0,0,0,13.575,19.231,22.427,22.427,0,0,0,3.126,1.21c.026.007.051.017.076.025.2.059.395.108.593.161.174.047.346.1.52.141l.058.012a22.046,22.046,0,0,0,5.774.6c.37-.011.735-.037,1.1-.065a21.687,21.687,0,0,0,9.455-2.983l8.767,7.363a33.548,33.548,0,0,1-6.426,4.62,32.182,32.182,0,0,1-19.936,3.758c-16.294-2.2-29.12-16.723-29.622-34.685-.036-1.279-.005-2.545.083-3.794a37.163,37.163,0,0,1,3.673-13.76l8.705,7.314Zm168.111,98.8,5.16,19.556-16.642-5.083c-10.061,15.955-34.551,52.433-57.148,67.577l-9.5,6.362-36.149,61.007-36.187-61-9.523-6.372c-22.608-15.143-47.1-51.621-57.148-67.577l-16.653,5.083,5.17-19.556c1.444-5.489,1.811-33.305,1.35-56.814-10.1-25.748-4.55-46.259,3.732-59.349L0,37.751l26.148-8.924c9.814-3.353,21.093-6.4,30.995-8.82l-5.214-3.48,26.236-5.533A95.64,95.64,0,0,1,97.013,9.484c12.36,0,28.234,1.306,46.11,3.8C157.783,4.8,180.435,0,206.325,0c25.934,0,49.552,4.913,64.464,13.293,17.926-2.5,33.832-3.809,46.2-3.809a95.563,95.563,0,0,1,18.848,1.509l26.236,5.533-5.214,3.48c9.9,2.42,21.181,5.467,30.989,8.82L414,37.751,316.236,84.405c8.272,13.09,13.826,33.6,3.721,59.349C319.491,167.262,319.876,195.079,321.319,200.568Zm-12.586-59.124c16.9-40.189-10.7-60.837-10.7-60.837l86.183-41.121c-23.091-7.887-55.37-14.172-55.37-14.172a2.137,2.137,0,0,1-.3.149c.049-.088.922-.735,4.973-3.436-10.7-2.256-33.234-1.69-65.151,2.991-26.384-17.92-95.953-18.766-122.722,0-31.928-4.682-54.459-5.247-65.162-2.991,4.05,2.7,4.923,3.348,4.973,3.436a2.136,2.136,0,0,1-.3-.149S52.884,31.6,29.788,39.485l86.189,41.121s-27.6,20.649-10.7,60.837c0,0,1.125,51.325-1.691,61.995l5.631-1.723s31.467,53.515,58.378,71.54V261.427l39.447,66.468,39.37-66.468v11.828c26.917-18.025,58.383-71.54,58.383-71.54l5.632,1.723C307.608,192.768,308.733,141.444,308.733,141.444Zm-65.7,4.528a32,32,0,0,0,8.053-1.706c13.188-4.617,22.882-17.6,23.317-33.169a38.174,38.174,0,0,0-.746-8.659,36.874,36.874,0,0,0-3.012-8.891h0l-9.786,8.222h0a26.986,26.986,0,0,1,.721,4.267,26.435,26.435,0,0,1,.093,3.037,25.237,25.237,0,0,1-9.043,18.845,22.525,22.525,0,0,1-11.35,4.99,22.076,22.076,0,0,1-3.533.183c-.423-.012-.84-.039-1.257-.074a21.676,21.676,0,0,1-9.3-2.973l-2.3,1.933-6.465,5.428h0A33.151,33.151,0,0,0,229.1,144a32.23,32.23,0,0,0,13.934,1.976ZM114.271,66.108q1.19.653,2.365,1.307c.319.177.639.355.957.534q1.532.86,3.039,1.72,1.968,1.127,3.887,2.257c.477.281.946.561,1.419.842.937.557,1.871,1.114,2.791,1.672.559.338,1.119.676,1.672,1.015.156.1.316.191.472.288.118.072.233.144.35.216.707.435,1.4.869,2.1,1.3.262.164.526.324.787.49.16.1.319.2.478.3q1.09.685,2.161,1.369l.522.334.936.6q2.507,1.615,4.918,3.217l.507.338q1.178.786,2.33,1.568l.564.382c.676.46,1.342.918,2.006,1.376.56.386,1.118.771,1.667,1.157.366.255.733.511,1.094.765.213.15.427.3.638.448q1.375.963,2.7,1.921t2.624,1.9l.817.6c.5.369,1,.739,1.5,1.1l.227.168.143.107c.518.386,1.026.768,1.534,1.151.262.2.525.391.783.592.333.248.66.5.986.747q2.338,1.782,4.524,3.5c.466.367.935.735,1.389,1.1h0a13.047,13.047,0,0,0-5.48,6.864l-.024.07q-.119.354-.218.717l-.018.062c-.07.262-.133.526-.186.793l-.008.043c-.046.235-.085.472-.118.712-.011.073-.019.147-.028.22-.024.192-.043.384-.058.579-.006.076-.012.151-.017.227-.016.262-.026.526-.026.792A13.031,13.031,0,0,0,183.9,123.956l-7.886-11.243,11.052,7.774c.181-.29.348-.591.506-.9l.02-.04c.154-.3.294-.605.425-.917v0c.337.313.661.615.98.914l.388.365.227.214.585.552.064.06.792.755.461.444.152.147.6.583.763.747c.121.121.242.236.357.351s.231.231.346.34.247.242.362.362l.395.395c.192.2.378.379.555.56.088.082.175.17.258.258.2.2.384.39.556.567l.068.07.3.313.209.217.252.265c.11.121.208.219.3.313s.165.175.225.241l.049.049c.126.132.187.2.187.2v0h0l-3.413-18.472s-2.694-3.608-6.914-8.432c-6.707-7.667-17.272-18.408-27.025-22.621A62.661,62.661,0,0,1,173.381,83a78.224,78.224,0,0,1,9.271,5.218,102.529,102.529,0,0,1,24.38,22.664v0h0s.3-.411.878-1.141c.143-.187.3-.39.483-.609s.373-.461.587-.719c.1-.131.214-.263.334-.4.137-.17.291-.352.445-.532.093-.11.192-.225.291-.34.521-.609,1.115-1.284,1.768-2,.329-.362.675-.741,1.038-1.131s.719-.774,1.109-1.175c.065-.076.141-.151.217-.227l.013-.014c.315-.326.635-.657.978-.994.2-.214.417-.428.637-.642.648-.642,1.328-1.306,2.042-1.97.236-.225.472-.45.714-.67q1.836-1.7,3.93-3.464c.156-.133.317-.265.478-.4l.285-.236q.3-.243.6-.488l.235-.191q.435-.349.883-.7l.378-.3c.126-.1.258-.2.384-.3.082-.06.165-.126.247-.187.285-.219.571-.439.861-.653.509-.38,1.03-.764,1.561-1.139l.045-.032c.26-.189.524-.372.787-.554l.3-.211.513-.351q.267-.182.537-.363.585-.394,1.188-.781l.413-.265.271-.173c.179-.11.361-.221.539-.336.4-.254.812-.5,1.223-.746l.064-.038c.285-.172.576-.341.866-.51l.517-.3c.263-.149.528-.3.794-.445.009-.006.018-.01.026-.015.147-.081.292-.163.44-.243.3-.163.6-.325.906-.483.149-.077.3-.159.445-.236.34-.181.681-.357,1.032-.527l.047-.023c.227-.114.457-.224.686-.335s.451-.22.681-.327l.434-.2.629-.29c.208-.094.416-.186.625-.278.342-.154.689-.3,1.036-.443.045-.024.093-.042.141-.062l.16-.068c.343-.143.689-.282,1.036-.419l.287-.115c.288-.112.58-.221.87-.33q.673-.251,1.356-.489c.11-.038.22-.08.331-.116s.252-.082.377-.124c.151-.051.3-.1.454-.149.252-.087.5-.164.758-.241l.028-.009.458-.14a.418.418,0,0,1,.057-.016c.251-.08.5-.154.759-.224.2-.057.391-.112.587-.166.23-.066.462-.127.7-.186s.473-.124.711-.183c.332-.083.667-.16,1-.237.147-.034.294-.07.442-.1-15.882,6.866-33.934,31.051-33.934,31.051l-3.414,18.475.009-.011.2-.212.03-.03.214-.229.061-.064.128-.135c.166-.174.367-.384.6-.622.1-.1.19-.194.3-.3l.049-.049c.159-.165.335-.346.522-.532.088-.093.187-.192.285-.291s.2-.208.308-.308c.127-.131.261-.267.4-.4.624-.624,1.342-1.333,2.151-2.12.03-.03.059-.059.092-.089l.45-.434q1.606-1.547,3.644-3.447c.113.269.238.532.369.792.024.047.048.094.072.141a13.094,13.094,0,0,0,.894,1.478l.094.132a13.113,13.113,0,0,0,1.088,1.323l.116.122a13.109,13.109,0,0,0,1.259,1.147l.139.11a12.991,12.991,0,0,0,1.408.953c.054.032.108.063.164.094a12.961,12.961,0,0,0,1.533.741l.186.074a12.9,12.9,0,0,0,1.639.511l.205.047c.281.062.564.12.852.164h0c.287.044.579.075.872.1l.219.016c.3.02.593.034.893.034a13.043,13.043,0,0,0,11.818-18.544c-4.112,2.321-11.243,6.354-11.818,6.613s5.566-6.354,9.238-10.3c-.178-.179-.363-.35-.551-.519l-.008-.007a13.009,13.009,0,0,0-1.825-1.362c.842-.67,1.708-1.35,2.588-2.036q2.723-2.123,5.679-4.34c.375-.281.742-.559,1.123-.841.147-.111.3-.221.449-.332q.821-.609,1.659-1.224c.377-.276.756-.553,1.141-.832q2.157-1.569,4.415-3.167l.169-.12.019-.013c.717-.505,1.448-1.015,2.18-1.524q.631-.438,1.266-.876l.447-.306q1.357-.932,2.749-1.873c.409-.276.819-.553,1.232-.829l1.009-.675q1.148-.764,2.32-1.531l.6-.393q4.014-2.618,8.3-5.262c.315-.2.627-.392.946-.583.363-.227.733-.449,1.1-.672q2.337-1.423,4.747-2.846c.286-.168.566-.337.853-.505l.287-.167q3.221-1.886,6.572-3.765l.358-.2q1.594-.89,3.216-1.777l.321-.175q1.58-.861,3.19-1.719c.117-.062.234-.126.355-.189l.619-.328q1.341-.711,2.7-1.418.478-.249.959-.5c.445-.23.9-.459,1.345-.688.783-.4,1.566-.8,2.358-1.2.775-.39,1.558-.777,2.341-1.164.39-.193.773-.386,1.165-.578l.542-.264q1.388-.678,2.793-1.351l.639-.306c.173-.083.348-.166.522-.248q1.307-.621,2.631-1.235c.361-.168.722-.338,1.084-.5,1.01-.472,2.031-.933,3.057-1.394q1.129-.511,2.264-1.013c.726-.322,1.452-.644,2.184-.964.2-.089.407-.179.612-.268.293-.128.591-.254.886-.38q1.011-.437,2.033-.868c.445-.191.888-.382,1.339-.568,1.229-.516,2.47-1.032,3.716-1.537.5-.209,1-.411,1.507-.61q1.268-.511,2.548-1.015.476-.191.957-.378c.473-.185.952-.368,1.428-.551q1.026-.4,2.057-.79c.48-.183.96-.366,1.444-.547q2.026-.766,4.073-1.5h0a68.128,68.128,0,0,0-14.8-2.523c-23.637-1.586-48.349,6.479-48.389,6.492.049-.045,3.793-3.508,13.047-7.965,1.911-.92,4.051-1.881,6.448-2.864h0c-38.559-3.6-65.248,28.753-65.355,28.884a44.652,44.652,0,0,1,2.707-12.907,35.889,35.889,0,0,1,8.123-13.089,24.687,24.687,0,0,0-4.911-3.51c-15.192-8.481-43.835-8.769-43.835-8.769s-17.23.174-32.053,4.209a54.187,54.187,0,0,0-11.363,4.332,25.226,25.226,0,0,0-5.334,3.738,37.418,37.418,0,0,1,9.148,16.227,43.134,43.134,0,0,1,1.686,9.771c-.005-.006-.427-.519-1.238-1.4-5.669-6.2-30.34-30.639-64.12-27.483h0c2.233.915,4.247,1.813,6.057,2.674,9.5,4.528,13.356,8.077,13.438,8.152-.221-.072-24.237-7.877-47.517-6.546a69.062,69.062,0,0,0-15.671,2.578h0c.846.306,1.682.62,2.52.93.532.2,1.069.392,1.6.591.386.144.768.291,1.152.436q1.3.491,2.577.99l.1.039c.6.231,1.208.472,1.811.708.442.171.877.348,1.316.522.546.218,1.094.433,1.637.653.423.168.843.336,1.262.511q1.485.605,2.954,1.219.7.29,1.388.582,1.782.752,3.543,1.513l.128.055.092.04c.993.432,1.973.868,2.954,1.3q.974.434,1.943.869,1.378.622,2.742,1.249c.129.059.258.117.386.177.222.1.44.2.659.306.375.174.745.35,1.118.525.923.43,1.846.86,2.756,1.3l.173.083c.8.383,1.594.768,2.387,1.154.536.26,1.071.52,1.6.781q1.584.78,3.146,1.565l.753.381q1.5.758,2.974,1.521.441.228.88.457,1.539.8,3.056,1.6l.2.1.107.057c.96.511,1.908,1.024,2.853,1.538C113.314,65.585,113.793,65.846,114.271,66.108Zm189.621,54.067-.153.076c-1.16.566-2.3,1.134-3.41,1.69l-.147.074c-.478.241-.955.477-1.416.714-.231.121-.461.236-.686.351-.353.184-.7.363-1.046.542l-1.143.593-.072.037c-3.945,2.054-6.721,3.585-6.858,3.66.017-.018.054-.06.112-.129.044-.049.1-.115.159-.2.115-.143.252-.329.417-.56.11-.159.231-.335.357-.532.085-.133.174-.279.264-.43.121-.2.246-.416.375-.651.07-.127.14-.258.212-.4.037-.071.075-.147.112-.221.029-.057.057-.11.086-.169.012-.024.023-.049.035-.073q.259-.528.522-1.145c.014-.033.028-.061.042-.095.03-.067.058-.14.088-.21l.007-.016c.023-.056.047-.11.07-.168.058-.147.115-.3.172-.453l.055-.143c.041-.114.083-.233.124-.35q.285-.805.544-1.725c.011-.039.023-.076.033-.116,0-.012.006-.024.009-.036.137-.5.264-1.022.382-1.569.011-.047.022-.094.031-.141a.675.675,0,0,1,.022-.1c.011-.049.022-.1.033-.159l.014-.074c.024-.118.046-.239.068-.359,0-.009,0-.018.005-.028,0-.029.01-.057.015-.086q.1-.534.181-1.1c0-.027.008-.052.012-.079.008-.05.014-.1.021-.154q.063-.449.117-.917c.007-.059.015-.115.022-.175s.01-.113.016-.169c.023-.219.044-.441.063-.667,0-.011,0-.02,0-.031.011-.11.022-.225.028-.34.006-.067.008-.137.013-.205.013-.193.026-.387.037-.585h0v0c.028-.524.042-1.065.048-1.618,0-.137.007-.271.007-.41,0-.055,0-.112,0-.166,0-.172,0-.345-.006-.519q-.006-.365-.018-.737c-.006-.182-.013-.365-.021-.55-.013-.282-.031-.569-.05-.858-.01-.15-.017-.3-.029-.447q-.049-.649-.12-1.32c-.014-.131-.031-.266-.046-.4q-.059-.524-.131-1.062-.029-.214-.06-.429-.086-.6-.189-1.213c-.015-.088-.028-.175-.043-.263-.091-.524-.187-1.055-.3-1.6,2.164,2.092,3.879,3.866,5.238,5.35,3.92,4.286,4.849,6.144,4.849,6.144v-.007l0,.005s-.179-16.691-11.428-23.506a20.824,20.824,0,0,0-11.024-2.847h0c6.275,7.819,8.083,31.3-3.641,47.474a37.132,37.132,0,0,1-11.753,10.557h0l0,0q.854-.172,1.688-.365l.448-.1c.175-.044.357-.082.532-.126a.437.437,0,0,1,.082-.022l.068-.017c1.131-.281,2.232-.59,3.306-.917l.105-.032.076-.024q1.908-.586,3.684-1.245l.06-.021.123-.047q1.535-.571,2.96-1.171l.029-.012.241-.1c1.22-.52,2.372-1.047,3.451-1.571l.183-.089q1.224-.6,2.312-1.178l.378-.2c.219-.121.434-.236.637-.346l.256-.144c.9-.5,1.705-.969,2.416-1.4l.006,0,.032-.02q.68-.413,1.237-.769l.141-.089.122-.079.222-.144c.1-.064.207-.133.3-.194l.264-.177c.134-.09.259-.173.373-.252l.1-.071c.11-.077.208-.143.3-.208.016-.011.027-.02.042-.03.277-.195.429-.307.446-.32L283.8,148.2l0,0,0,0s15.616-11.133,19.921-24.381a22.481,22.481,0,0,0,.928-4.013C304.4,119.928,304.145,120.054,303.892,120.175Zm-194.481-.368c1.191,9.049,8.59,17.55,14.24,22.85a71.681,71.681,0,0,0,6.611,5.544h0l-7.948-14.951a.189.189,0,0,1,.049.038.04.04,0,0,1,.014.007l.127.092.007.005c.137.1.34.247.6.428.154.1.329.225.527.352.005.005.016.011.022.016l.137.089q.253.168.547.357l.139.092.3.189.078.049c.078.049.15.1.231.145l.087.053q.558.348,1.214.739l.152.091.016.009q.452.268.948.551l.012.007a74.444,74.444,0,0,0,18.66,7.56l.009,0a.46.46,0,0,1,.082.022c.175.044.357.082.532.126l.345.079c.59.137,1.184.268,1.787.389l0,0h.007C124.834,131,125.674,96.518,133.55,86.705a23.241,23.241,0,0,0-6.519.877c-15.714,4.572-15.936,25.477-15.936,25.477h0v0s1.68-3.364,10.092-11.5c-.026.126-.045.246-.07.371-.072.365-.141.728-.2,1.085-.041.233-.078.461-.114.69q-.064.4-.123.788c-.033.224-.065.447-.095.668-.039.288-.073.573-.106.856-.02.175-.043.354-.061.527q-.071.672-.12,1.321c-.008.1-.013.206-.02.309-.024.354-.045.7-.061,1.046-.006.124-.01.246-.014.369-.012.333-.02.66-.025.984,0,.1,0,.2,0,.3,0,.078,0,.159,0,.237,0,.216.006.426.01.64q.006.345.016.681c.005.155.01.312.017.463,0,.05.006.1.008.15.009.183.018.365.03.544,0,.036,0,.072.006.108.005.131.016.264.028.395s.022.258.033.384a.051.051,0,0,0,0,.011c.016.177.035.348.053.522.008.073.013.148.022.219,0,.049.012.093.017.141.022.186.042.373.066.555,0,.013,0,.026,0,.039.016.131.033.263.055.4.015.108.032.215.049.321.022.139.044.275.067.411.009.054.017.11.028.162.022.137.044.275.072.411.009.043.018.085.026.128.026.137.054.269.081.4,0,.022.009.045.014.067s.014.062.02.093c.049.231.1.461.15.684,0,.017.007.035.011.051s.011.044.016.06.007.027.011.041c.062.259.126.515.192.762a.008.008,0,0,1,0,0c.008.031.018.06.026.091.075.275.152.544.231.8.027.093.055.189.083.279.011.028.016.055.028.082l.016.049.058.175c.031.095.062.187.094.279.026.077.052.158.078.232.035.1.071.194.107.291l.067.183c.015.04.031.084.045.124.041.107.081.2.122.306.053.133.105.264.158.39.018.044.036.091.055.133.038.087.072.17.11.258.012.028.024.055.036.083l.028.063.035.079c.07.15.136.3.205.44.057.12.114.234.171.348.033.068.068.138.1.2.066.13.131.253.2.375l.018.034.007.013a16.92,16.92,0,0,0,1.262,2.013c.032.043.062.082.092.121.1.127.18.232.245.31.014.017.034.043.046.057.06.071.1.115.115.132l-.631-.346c-.072-.038-.154-.082-.242-.131-.131-.071-.275-.154-.434-.236l-.122-.064c-.4-.216-.87-.47-1.41-.759l-.2-.109-.1-.053c-.662-.354-1.408-.75-2.226-1.181-.415-.218-.841-.443-1.29-.676-.3-.154-.6-.313-.917-.477-.072-.039-.148-.077-.219-.116-.214-.107-.43-.219-.648-.331-1.768-.91-3.707-1.891-5.708-2.873-.011-.006-.022-.011-.032-.018-.216-.107-.438-.213-.656-.319l-.457-.222Zm97.622,76.9-22.965-43.245s19.693-7.547,22.965-18.722C210.3,145.917,230,153.464,230,153.464Zm0-28.141,16.312-14.018a24.5,24.5,0,0,1-16.312-10.094Zm94.2-23.826a.511.511,0,0,0,.082-.011l-2.41,45.5c-6.982,22.042-22.5,41.588-43.827,65.562V222.424l-48.048,83.148-48.054-83.148V255.79c-21.335-23.985-36.862-43.542-43.838-65.6L112.688,144.7c10.253,6.806,34.282,12.563,34.282,12.563l-8.381-7.86c11,2.1,28.294,5.066,28.294,5.066h.005l40.145,53.976,40.145-53.975s17.295-2.969,28.294-5.066l-8.382,7.86s23.815-5.708,34.14-12.475A.182.182,0,0,1,301.236,144.742ZM157.844,216.578,147.333,162.96s-10.324-1.328-13.782-3.293C152.986,208.307,157.844,216.578,157.844,216.578ZM227.4,203.455l-20.369,22.586L186.66,203.455c.445.637,14.732,21.093,15.972,33.1.423,8.414,4.4,42.894,4.4,42.894s3.979-34.48,4.4-42.894C212.67,224.548,226.957,204.092,227.4,203.455Zm53.114-43.789c-3.458,1.965-13.782,3.293-13.782,3.293l-10.516,53.619S261.075,208.307,280.516,159.666Z" fill="#fff"/>
</svg>
