<svg xmlns="http://www.w3.org/2000/svg" version="1.1" xmlns:xlink="http://www.w3.org/1999/xlink" xmlns:svgjs="http://svgjs.com/svgjs" width="1000" height="1000"><rect width="1000" height="1000" rx="100" ry="100" fill="#ffffff"></rect><g transform="matrix(9,0,0,9,50.00002493591455,119.5790224609375)"><svg xmlns="http://www.w3.org/2000/svg" version="1.1" xmlns:xlink="http://www.w3.org/1999/xlink" xmlns:svgjs="http://svgjs.com/svgjs" width="100" height="84.538"><svg version="1.1" id="Layer_1" xmlns="http://www.w3.org/2000/svg" xmlns:xlink="http://www.w3.org/1999/xlink" x="0px" y="0px" viewBox="0 0 100 84.538" style="enable-background:new 0 0 100 84.538;" xml:space="preserve">
<path d="M37.007,24.582c-0.141,0.559-0.214,1.153-0.197,1.765c0.006,0.215,0.023,0.428,0.05,0.637
	c0.268,2.085,1.544,3.818,3.279,4.645c0.243,0.116,0.495,0.214,0.755,0.292c0.006,0.002,0.012,0.004,0.018,0.006
	c0.047,0.014,0.095,0.026,0.143,0.039c0.042,0.011,0.083,0.024,0.126,0.034c0.005,0.001,0.009,0.002,0.014,0.003
	c0.448,0.108,0.915,0.159,1.395,0.145c0.089-0.002,0.178-0.009,0.266-0.016c0.826-0.064,1.6-0.313,2.284-0.72l2.118,1.778
	c-0.472,0.433-0.993,0.807-1.552,1.116c-1.066,0.59-2.273,0.939-3.557,0.975c-0.427,0.012-0.847-0.011-1.259-0.067
	c-3.936-0.531-7.034-4.039-7.155-8.378c-0.009-0.309-0.001-0.615,0.02-0.917c0.083-1.19,0.393-2.316,0.887-3.324l2.103,1.767
	L37.007,24.582z M77.613,48.446l1.246,4.724l-4.02-1.228c-2.43,3.854-8.346,12.665-13.804,16.323l-2.295,1.537l-8.732,14.736
	l-8.741-14.733l-2.3-1.539c-5.461-3.658-11.378-12.469-13.804-16.323l-4.022,1.228l1.249-4.724
	c0.349-1.326,0.438-8.045,0.326-13.723c-2.441-6.219-1.099-11.174,0.902-14.336L0,9.119l6.316-2.156
	c2.37-0.81,5.095-1.546,7.487-2.13l-1.259-0.841l6.337-1.336c1.16-0.243,2.689-0.365,4.553-0.365c2.986,0,6.82,0.316,11.138,0.917
	C38.112,1.159,43.583,0,49.837,0c6.264,0,11.969,1.187,15.571,3.211c4.33-0.605,8.172-0.92,11.16-0.92
	c1.864,0,3.395,0.122,4.553,0.365l6.337,1.336l-1.259,0.841c2.392,0.585,5.116,1.32,7.485,2.13L100,9.119L76.385,20.388
	c1.998,3.162,3.34,8.116,0.899,14.336C77.172,40.401,77.264,47.12,77.613,48.446z M74.573,34.165
	c4.082-9.707-2.585-14.695-2.585-14.695l20.817-9.933c-5.577-1.905-13.374-3.423-13.374-3.423S79.368,6.15,79.359,6.15
	c0.012-0.021,0.223-0.178,1.201-0.83c-2.585-0.545-8.028-0.408-15.737,0.723c-6.373-4.329-23.177-4.533-29.643,0
	c-7.712-1.131-13.154-1.267-15.74-0.723c0.978,0.652,1.189,0.809,1.201,0.83c-0.009,0-0.072-0.036-0.072-0.036
	S12.774,7.632,7.195,9.538l20.819,9.933c0,0-6.667,4.988-2.585,14.695c0,0,0.272,12.397-0.408,14.975
	c1.36-0.416,1.36-0.416,1.36-0.416s7.601,12.926,14.101,17.28v-2.857l9.528,16.055l9.51-16.055v2.857
	c6.502-4.354,14.102-17.28,14.102-17.28s0,0,1.36,0.416C74.301,46.562,74.573,34.165,74.573,34.165z M58.703,35.259
	c0.674-0.054,1.325-0.195,1.945-0.412c3.185-1.115,5.527-4.251,5.632-8.012c0.02-0.718-0.044-1.419-0.18-2.092
	c-0.154-0.757-0.4-1.479-0.728-2.148h0c0,0,0,0,0,0l-2.364,1.986c0,0,0,0,0,0l0,0c0.084,0.332,0.143,0.677,0.174,1.031
	c0.021,0.241,0.029,0.486,0.022,0.734c-0.052,1.857-0.899,3.494-2.184,4.552c-0.779,0.641-1.719,1.069-2.741,1.205
	c-0.279,0.037-0.564,0.052-0.853,0.044c-0.102-0.003-0.203-0.01-0.304-0.018c-0.812-0.068-1.573-0.317-2.247-0.718l-0.556,0.467
	l-1.561,1.311c0,0,0,0,0,0l0,0c0.751,0.688,1.624,1.231,2.58,1.592c0.792,0.299,1.642,0.474,2.528,0.499
	C58.148,35.288,58.427,35.281,58.703,35.259z M27.602,15.968c0.192,0.105,0.382,0.21,0.571,0.316
	c0.077,0.043,0.154,0.086,0.231,0.129c0.247,0.138,0.492,0.277,0.734,0.416c0.317,0.181,0.629,0.363,0.939,0.545
	c0.115,0.068,0.229,0.136,0.343,0.203c0.226,0.134,0.452,0.269,0.674,0.404c0.135,0.082,0.27,0.163,0.404,0.245
	c0.038,0.023,0.076,0.046,0.114,0.07c0.029,0.017,0.056,0.035,0.085,0.052c0.171,0.105,0.339,0.21,0.508,0.315
	c0.063,0.039,0.127,0.078,0.19,0.118c0.039,0.024,0.077,0.048,0.116,0.073c0.175,0.11,0.349,0.221,0.522,0.331
	c0.042,0.027,0.084,0.054,0.126,0.081c0.076,0.049,0.151,0.097,0.226,0.145c0.404,0.26,0.8,0.519,1.188,0.777
	c0.041,0.027,0.082,0.055,0.123,0.082c0.19,0.127,0.377,0.253,0.563,0.379c0.045,0.031,0.091,0.062,0.136,0.092
	c0.163,0.111,0.324,0.222,0.485,0.332c0.135,0.093,0.27,0.186,0.403,0.28c0.088,0.062,0.177,0.123,0.264,0.185
	c0.051,0.036,0.103,0.072,0.154,0.108c0.221,0.155,0.439,0.31,0.652,0.464c0.215,0.154,0.426,0.308,0.634,0.46
	c0.066,0.048,0.132,0.097,0.197,0.145c0.121,0.089,0.243,0.178,0.362,0.267c0.018,0.013,0.037,0.027,0.055,0.04
	c0.012,0.009,0.023,0.017,0.035,0.026c0.125,0.093,0.248,0.186,0.37,0.278c0.063,0.047,0.127,0.094,0.189,0.143
	c0.08,0.06,0.16,0.12,0.238,0.181c0.377,0.287,0.741,0.569,1.093,0.846c0.112,0.089,0.226,0.178,0.336,0.265c0,0,0,0,0,0
	c-0.614,0.38-1.086,0.964-1.324,1.658c-0.002,0.006-0.004,0.011-0.006,0.017c-0.019,0.057-0.037,0.115-0.053,0.173
	c-0.001,0.005-0.003,0.01-0.004,0.015c-0.017,0.063-0.032,0.127-0.045,0.192c-0.001,0.003-0.001,0.007-0.002,0.011
	c-0.011,0.057-0.021,0.114-0.029,0.172c-0.002,0.018-0.005,0.035-0.007,0.053c-0.006,0.046-0.01,0.093-0.014,0.14
	c-0.001,0.018-0.003,0.037-0.004,0.055c-0.004,0.063-0.006,0.127-0.006,0.191c0,1.739,1.41,3.149,3.148,3.149
	c0.716,0,1.377-0.24,1.905-0.642l-1.905-2.716l2.67,1.878c0.044-0.07,0.084-0.143,0.122-0.216c0.002-0.003,0.003-0.007,0.005-0.01
	c0.037-0.072,0.071-0.146,0.103-0.221c0,0,0,0,0-0.001c0.081,0.075,0.16,0.149,0.237,0.221c0.031,0.029,0.062,0.059,0.094,0.088
	c0.019,0.018,0.036,0.034,0.055,0.052c0.047,0.045,0.096,0.09,0.141,0.133c0.005,0.005,0.01,0.01,0.015,0.015
	c0.066,0.062,0.129,0.123,0.191,0.182c0.038,0.036,0.075,0.072,0.111,0.107c0.012,0.012,0.024,0.024,0.037,0.035
	c0.05,0.048,0.098,0.095,0.145,0.141c0.064,0.062,0.125,0.122,0.184,0.18c0.029,0.029,0.058,0.057,0.086,0.085
	c0.029,0.028,0.056,0.056,0.084,0.082c0.03,0.029,0.06,0.058,0.088,0.088l0.095,0.095c0.046,0.048,0.091,0.092,0.134,0.135
	c0.021,0.02,0.042,0.041,0.062,0.062c0.048,0.049,0.093,0.094,0.134,0.137c0.006,0.006,0.011,0.011,0.017,0.017
	c0.026,0.027,0.05,0.051,0.073,0.076c0.017,0.018,0.035,0.036,0.05,0.052c0.021,0.022,0.042,0.044,0.061,0.064
	c0.027,0.029,0.05,0.053,0.072,0.076c0.021,0.023,0.04,0.042,0.054,0.058l0.012,0.012c0.03,0.032,0.045,0.049,0.045,0.049l0-0.001
	l0,0l-0.824-4.462c0,0-0.651-0.872-1.67-2.037c-1.62-1.852-4.172-4.446-6.528-5.464c1.134,0.25,2.207,0.64,3.209,1.115
	c0.794,0.376,1.542,0.805,2.239,1.26c3.639,2.377,5.889,5.474,5.889,5.474s0,0,0,0l0,0c0,0,0.072-0.099,0.212-0.276
	c0.034-0.045,0.073-0.094,0.117-0.147c0.044-0.054,0.09-0.111,0.142-0.174c0.025-0.032,0.052-0.064,0.081-0.097
	c0.033-0.041,0.07-0.085,0.107-0.129c0.023-0.027,0.046-0.054,0.07-0.082c0.126-0.147,0.269-0.31,0.427-0.484
	c0.08-0.088,0.163-0.179,0.251-0.273c0.085-0.091,0.174-0.187,0.268-0.284c0.016-0.018,0.034-0.037,0.052-0.055
	c0.001-0.001,0.002-0.002,0.003-0.003c0.076-0.079,0.154-0.159,0.236-0.24c0.049-0.052,0.101-0.103,0.154-0.155
	c0.156-0.155,0.321-0.316,0.493-0.476c0.057-0.054,0.114-0.109,0.172-0.162c0.296-0.274,0.613-0.554,0.949-0.837
	c0.038-0.032,0.077-0.064,0.115-0.096c0.023-0.019,0.046-0.038,0.069-0.057c0.048-0.039,0.096-0.079,0.145-0.118
	c0.019-0.015,0.038-0.031,0.057-0.046c0.07-0.056,0.141-0.112,0.213-0.168c0.03-0.024,0.061-0.048,0.091-0.072
	c0.03-0.025,0.062-0.049,0.093-0.072c0.02-0.015,0.04-0.03,0.06-0.045c0.069-0.053,0.138-0.106,0.208-0.158
	c0.123-0.092,0.249-0.185,0.377-0.275c0.004-0.003,0.007-0.005,0.011-0.008c0.063-0.046,0.126-0.09,0.19-0.134
	c0.024-0.017,0.049-0.034,0.073-0.051c0.041-0.028,0.083-0.057,0.124-0.085c0.043-0.029,0.086-0.059,0.13-0.088
	c0.094-0.063,0.19-0.126,0.287-0.189c0.032-0.021,0.066-0.042,0.1-0.064c0.022-0.014,0.044-0.028,0.066-0.042
	c0.043-0.027,0.087-0.053,0.13-0.081c0.097-0.061,0.196-0.122,0.295-0.18c0.005-0.003,0.01-0.006,0.016-0.009
	c0.069-0.042,0.139-0.082,0.209-0.123c0.041-0.024,0.083-0.048,0.125-0.072c0.064-0.036,0.128-0.072,0.192-0.108
	c0.002-0.001,0.004-0.002,0.006-0.004c0.035-0.02,0.071-0.039,0.106-0.059c0.073-0.039,0.145-0.079,0.219-0.117
	c0.036-0.019,0.072-0.038,0.107-0.057c0.082-0.044,0.164-0.086,0.249-0.127c0.004-0.002,0.008-0.004,0.011-0.006
	c0.055-0.027,0.11-0.054,0.166-0.081c0.055-0.026,0.109-0.053,0.165-0.079c0.035-0.016,0.07-0.033,0.105-0.049
	c0.051-0.024,0.101-0.047,0.152-0.07c0.05-0.023,0.101-0.045,0.151-0.067c0.083-0.037,0.166-0.074,0.25-0.107
	c0.011-0.006,0.023-0.01,0.034-0.015c0.013-0.005,0.026-0.011,0.039-0.016c0.083-0.035,0.167-0.068,0.25-0.101
	c0.023-0.009,0.046-0.019,0.069-0.028c0.07-0.027,0.14-0.053,0.21-0.08c0.108-0.041,0.218-0.08,0.327-0.118
	c0.027-0.009,0.053-0.019,0.08-0.028c0.03-0.01,0.061-0.02,0.091-0.03c0.036-0.012,0.073-0.025,0.11-0.036
	c0.061-0.021,0.122-0.04,0.183-0.058c0.002-0.001,0.005-0.001,0.007-0.002c0.037-0.011,0.074-0.023,0.111-0.034
	c0.005-0.001,0.009-0.003,0.014-0.004c0.061-0.019,0.121-0.037,0.183-0.054c0.047-0.014,0.095-0.027,0.142-0.04
	c0.056-0.016,0.112-0.031,0.168-0.045c0.057-0.015,0.114-0.03,0.172-0.044c0.08-0.02,0.161-0.039,0.242-0.057
	c0.036-0.008,0.071-0.017,0.107-0.025c-3.836,1.658-8.197,7.5-8.197,7.5l-0.825,4.463c0,0,0.002-0.002,0.002-0.003
	c0.003-0.003,0.019-0.02,0.047-0.051l0.007-0.007c0.015-0.016,0.032-0.034,0.052-0.055c0.005-0.005,0.01-0.01,0.015-0.016
	c0.009-0.01,0.02-0.022,0.031-0.033c0.04-0.042,0.089-0.093,0.144-0.15c0.023-0.024,0.046-0.047,0.071-0.073l0.012-0.012
	c0.038-0.04,0.081-0.084,0.126-0.129c0.021-0.023,0.045-0.046,0.069-0.07c0.024-0.025,0.049-0.05,0.074-0.074
	c0.031-0.032,0.063-0.064,0.096-0.097c0.151-0.151,0.324-0.322,0.52-0.512c0.007-0.007,0.014-0.014,0.022-0.021
	c0.036-0.035,0.072-0.069,0.109-0.105c0.258-0.249,0.551-0.528,0.88-0.832c0.027,0.065,0.058,0.128,0.089,0.191
	c0.006,0.011,0.012,0.023,0.017,0.034c0.064,0.124,0.136,0.243,0.216,0.357c0.007,0.011,0.015,0.021,0.023,0.032
	c0.081,0.112,0.168,0.219,0.263,0.319c0.009,0.01,0.019,0.02,0.028,0.03c0.095,0.099,0.197,0.191,0.304,0.277
	c0.011,0.009,0.022,0.018,0.034,0.026c0.108,0.084,0.221,0.161,0.34,0.23c0.013,0.008,0.026,0.015,0.039,0.023
	c0.119,0.067,0.242,0.127,0.37,0.179c0.015,0.006,0.03,0.012,0.045,0.018c0.128,0.05,0.26,0.091,0.396,0.123
	c0.016,0.004,0.033,0.008,0.049,0.011c0.068,0.015,0.136,0.029,0.206,0.04c0,0,0.001,0,0.001,0c0.069,0.011,0.14,0.018,0.211,0.024
	c0.018,0.001,0.035,0.003,0.053,0.004c0.071,0.005,0.143,0.008,0.216,0.008c1.739,0,3.149-1.41,3.149-3.149
	c0-0.474-0.106-0.925-0.294-1.331c-0.993,0.561-2.716,1.535-2.855,1.597c-0.136,0.065,1.344-1.535,2.231-2.487
	c-0.043-0.043-0.088-0.085-0.133-0.125c-0.001-0.001-0.001-0.001-0.002-0.002c-0.137-0.122-0.284-0.232-0.441-0.329
	c0.203-0.162,0.413-0.326,0.625-0.492c0.438-0.342,0.897-0.692,1.372-1.048c0.091-0.068,0.179-0.135,0.271-0.203
	c0.036-0.027,0.073-0.054,0.108-0.08c0.132-0.098,0.266-0.197,0.401-0.296c0.091-0.067,0.183-0.133,0.275-0.201
	c0.347-0.253,0.702-0.508,1.066-0.765c0.014-0.01,0.027-0.019,0.041-0.029c0.001-0.001,0.003-0.002,0.005-0.003
	c0.173-0.122,0.35-0.245,0.527-0.368c0.102-0.07,0.204-0.141,0.306-0.212c0.036-0.025,0.072-0.049,0.108-0.074
	c0.219-0.15,0.44-0.301,0.664-0.452c0.099-0.067,0.198-0.133,0.298-0.2c0.081-0.054,0.162-0.109,0.244-0.163
	c0.185-0.123,0.372-0.246,0.56-0.37c0.048-0.032,0.097-0.063,0.145-0.095c0.646-0.422,1.315-0.846,2.004-1.271
	c0.076-0.047,0.152-0.095,0.228-0.141c0.088-0.055,0.177-0.108,0.266-0.162c0.376-0.229,0.758-0.458,1.147-0.687
	c0.069-0.041,0.137-0.081,0.206-0.122c0.023-0.013,0.046-0.027,0.069-0.04c0.519-0.304,1.048-0.607,1.587-0.909
	c0.029-0.016,0.058-0.032,0.086-0.048c0.257-0.143,0.516-0.286,0.777-0.429c0.026-0.014,0.052-0.028,0.078-0.042
	c0.254-0.139,0.512-0.277,0.77-0.415c0.028-0.015,0.056-0.03,0.086-0.046c0.05-0.026,0.1-0.053,0.15-0.079
	c0.216-0.114,0.433-0.229,0.652-0.343c0.077-0.04,0.154-0.08,0.232-0.12c0.108-0.056,0.217-0.111,0.325-0.166
	c0.189-0.097,0.378-0.194,0.57-0.29c0.187-0.094,0.376-0.188,0.565-0.281c0.094-0.046,0.187-0.093,0.281-0.14
	c0.044-0.021,0.087-0.042,0.131-0.064c0.223-0.109,0.448-0.218,0.675-0.326c0.051-0.025,0.103-0.049,0.154-0.074
	c0.042-0.02,0.084-0.04,0.126-0.06c0.21-0.1,0.423-0.199,0.636-0.298c0.087-0.041,0.174-0.082,0.262-0.122
	c0.244-0.114,0.491-0.225,0.738-0.337c0.182-0.082,0.364-0.163,0.547-0.245c0.175-0.078,0.351-0.156,0.528-0.233
	c0.049-0.021,0.098-0.043,0.148-0.065c0.071-0.031,0.143-0.061,0.214-0.092c0.163-0.07,0.327-0.14,0.491-0.21
	c0.108-0.046,0.215-0.092,0.324-0.137c0.297-0.125,0.597-0.249,0.898-0.371c0.121-0.05,0.242-0.099,0.364-0.147
	c0.204-0.082,0.409-0.164,0.615-0.245c0.077-0.031,0.154-0.061,0.231-0.091c0.114-0.045,0.23-0.089,0.345-0.133
	c0.165-0.064,0.331-0.128,0.497-0.191c0.116-0.044,0.232-0.088,0.349-0.132c0.326-0.123,0.654-0.244,0.984-0.363c0,0,0,0-0.001,0
	c0,0,0,0,0,0c-1.139-0.339-2.351-0.527-3.575-0.609c-5.709-0.383-11.679,1.565-11.688,1.568c0.012-0.011,0.916-0.847,3.151-1.924
	c0.462-0.222,0.978-0.454,1.557-0.692c0,0,0,0,0,0c0,0,0.001,0,0.001,0c-9.314-0.87-15.76,6.945-15.786,6.977
	c0-0.013,0.036-1.436,0.654-3.118c0.385-1.047,0.994-2.194,1.962-3.162c-0.334-0.315-0.736-0.596-1.186-0.848
	c-3.669-2.049-10.588-2.118-10.588-2.118s-4.162,0.042-7.742,1.017c-0.994,0.27-1.942,0.613-2.745,1.046
	c-0.492,0.265-0.93,0.565-1.288,0.903c1.209,1.209,1.859,2.696,2.21,3.92c0.383,1.337,0.407,2.359,0.407,2.36
	c-0.001-0.001-0.103-0.125-0.299-0.339c-1.369-1.497-7.328-7.401-15.488-6.638c0,0,0.001,0,0.001,0c0,0-0.001,0-0.001,0
	c0.539,0.221,1.026,0.438,1.463,0.646c2.295,1.094,3.226,1.951,3.246,1.969c-0.053-0.017-5.854-1.903-11.477-1.581
	c-1.295,0.074-2.581,0.265-3.785,0.623c0,0,0.001,0,0.001,0c0,0,0,0,0,0c0.204,0.074,0.406,0.15,0.609,0.225
	c0.129,0.048,0.258,0.095,0.386,0.143c0.093,0.035,0.186,0.07,0.278,0.105c0.209,0.079,0.416,0.159,0.622,0.239
	c0.008,0.003,0.016,0.006,0.024,0.009c0.146,0.056,0.292,0.114,0.438,0.171c0.107,0.041,0.212,0.084,0.318,0.126
	c0.132,0.052,0.264,0.105,0.395,0.158c0.102,0.041,0.204,0.081,0.305,0.124c0.239,0.097,0.477,0.196,0.713,0.294
	c0.112,0.047,0.224,0.093,0.335,0.14c0.287,0.121,0.573,0.243,0.856,0.365c0.01,0.004,0.021,0.009,0.031,0.013
	c0.007,0.003,0.015,0.006,0.022,0.01c0.24,0.104,0.477,0.21,0.714,0.315c0.157,0.07,0.314,0.14,0.469,0.21
	c0.222,0.1,0.443,0.201,0.662,0.302c0.031,0.014,0.062,0.028,0.093,0.043c0.054,0.024,0.106,0.049,0.159,0.074
	c0.091,0.042,0.18,0.085,0.27,0.127c0.223,0.104,0.446,0.208,0.666,0.314c0.014,0.007,0.028,0.013,0.042,0.02
	c0.193,0.093,0.385,0.186,0.576,0.279c0.129,0.063,0.259,0.126,0.387,0.189c0.255,0.126,0.509,0.251,0.76,0.378
	c0.061,0.031,0.121,0.061,0.182,0.092c0.241,0.122,0.481,0.245,0.718,0.367c0.071,0.037,0.142,0.073,0.213,0.11
	c0.248,0.129,0.494,0.258,0.738,0.388c0.016,0.008,0.032,0.017,0.048,0.025c0.008,0.005,0.017,0.009,0.026,0.014
	c0.232,0.123,0.461,0.247,0.689,0.371C27.37,15.842,27.486,15.905,27.602,15.968z M73.404,29.028
	c-0.012,0.006-0.025,0.012-0.037,0.018c-0.28,0.137-0.557,0.274-0.824,0.408l-0.036,0.018c-0.115,0.058-0.231,0.115-0.342,0.172
	c-0.056,0.029-0.111,0.057-0.166,0.085c-0.085,0.044-0.17,0.088-0.253,0.131c-0.094,0.049-0.187,0.096-0.276,0.143
	c-0.006,0.003-0.012,0.006-0.017,0.009c-0.953,0.496-1.623,0.866-1.656,0.884c0.004-0.004,0.013-0.015,0.027-0.031
	c0.011-0.012,0.024-0.028,0.038-0.048c0.028-0.035,0.061-0.08,0.101-0.135c0.027-0.038,0.056-0.081,0.086-0.129
	c0.021-0.032,0.042-0.067,0.064-0.104c0.029-0.048,0.059-0.101,0.09-0.157c0.017-0.031,0.034-0.062,0.051-0.095
	c0.009-0.017,0.018-0.035,0.027-0.053c0.007-0.014,0.014-0.027,0.021-0.041c0.003-0.006,0.006-0.012,0.008-0.018
	c0.042-0.085,0.084-0.178,0.126-0.277c0.003-0.008,0.007-0.015,0.01-0.023c0.007-0.016,0.014-0.034,0.021-0.051
	c0.001-0.001,0.001-0.003,0.002-0.004c0.006-0.014,0.011-0.026,0.017-0.041c0.014-0.035,0.028-0.073,0.042-0.11
	c0.004-0.012,0.009-0.023,0.013-0.035c0.01-0.028,0.02-0.056,0.03-0.085c0.046-0.13,0.09-0.269,0.131-0.417
	c0.003-0.01,0.005-0.018,0.008-0.028c0.001-0.003,0.001-0.006,0.002-0.009c0.033-0.12,0.064-0.247,0.092-0.379
	c0.003-0.011,0.005-0.023,0.008-0.034c0.001-0.008,0.003-0.016,0.005-0.024c0.003-0.012,0.005-0.025,0.008-0.038
	c0.001-0.006,0.002-0.012,0.003-0.018c0.006-0.029,0.011-0.058,0.017-0.087c0-0.002,0.001-0.004,0.001-0.007
	c0.001-0.007,0.002-0.014,0.004-0.021c0.016-0.086,0.03-0.174,0.044-0.265c0.001-0.007,0.002-0.013,0.003-0.019
	c0.002-0.012,0.003-0.025,0.005-0.037c0.01-0.072,0.02-0.146,0.028-0.222c0.002-0.014,0.004-0.028,0.005-0.042
	c0.002-0.013,0.002-0.027,0.004-0.041c0.005-0.053,0.011-0.107,0.015-0.161c0-0.003,0.001-0.005,0.001-0.008
	c0.003-0.027,0.005-0.054,0.007-0.082c0.001-0.016,0.002-0.033,0.003-0.05c0.003-0.047,0.006-0.093,0.009-0.141c0,0,0,0,0,0
	c0,0,0-0.001,0-0.001c0.007-0.126,0.01-0.257,0.012-0.391c0-0.033,0.002-0.065,0.002-0.099c0-0.013,0-0.027-0.001-0.04
	c0-0.041-0.001-0.083-0.002-0.125c-0.001-0.059-0.002-0.118-0.004-0.178c-0.002-0.044-0.003-0.088-0.005-0.133
	c-0.003-0.068-0.007-0.137-0.012-0.207c-0.002-0.036-0.004-0.071-0.007-0.108c-0.008-0.104-0.018-0.211-0.029-0.319
	c-0.003-0.032-0.007-0.064-0.011-0.096c-0.01-0.084-0.02-0.17-0.032-0.256c-0.005-0.034-0.01-0.069-0.015-0.104
	c-0.014-0.096-0.029-0.194-0.046-0.293c-0.004-0.021-0.007-0.042-0.011-0.064c-0.022-0.127-0.045-0.255-0.072-0.386
	c0.523,0.505,0.937,0.934,1.265,1.292c0.947,1.035,1.171,1.484,1.171,1.484s0-0.001,0-0.002c0,0,0.001,0.001,0.001,0.001
	s-0.043-4.032-2.76-5.678c-0.697-0.422-1.57-0.688-2.663-0.688c0,0,0,0,0,0c0,0,0,0,0,0c1.516,1.889,1.952,7.561-0.879,11.467
	c-0.722,0.995-1.656,1.876-2.839,2.55c0,0,0,0,0,0c0,0,0,0-0.001,0c0.137-0.028,0.273-0.057,0.408-0.088
	c0.036-0.008,0.072-0.017,0.108-0.025c0.042-0.011,0.086-0.02,0.129-0.03c0.007-0.003,0.013-0.004,0.02-0.005
	c0.005-0.001,0.011-0.003,0.017-0.004c0.273-0.068,0.539-0.143,0.799-0.222c0.008-0.003,0.017-0.005,0.025-0.008
	c0.006-0.002,0.012-0.004,0.018-0.006c0.307-0.094,0.604-0.195,0.89-0.301c0.005-0.002,0.01-0.003,0.015-0.005
	c0.01-0.004,0.02-0.008,0.03-0.011c0.247-0.092,0.486-0.187,0.715-0.283c0.002-0.001,0.005-0.002,0.007-0.003
	c0.02-0.008,0.039-0.017,0.058-0.025c0.295-0.126,0.573-0.253,0.834-0.379c0.015-0.007,0.03-0.014,0.044-0.021
	c0.197-0.096,0.383-0.191,0.558-0.284c0.03-0.016,0.062-0.032,0.091-0.048c0.053-0.029,0.105-0.057,0.154-0.084
	c0.021-0.012,0.041-0.023,0.062-0.035c0.217-0.12,0.412-0.234,0.584-0.338c0,0,0.001-0.001,0.001-0.001
	c0.003-0.002,0.005-0.003,0.008-0.005c0.11-0.067,0.209-0.129,0.299-0.186c0.011-0.007,0.023-0.015,0.034-0.021
	c0.011-0.007,0.019-0.012,0.029-0.019c0.019-0.012,0.036-0.023,0.054-0.035c0.024-0.016,0.05-0.032,0.072-0.047
	c0.023-0.015,0.043-0.029,0.064-0.043c0.032-0.022,0.062-0.042,0.09-0.061c0.008-0.006,0.018-0.012,0.025-0.017
	c0.027-0.019,0.05-0.035,0.073-0.05c0.004-0.003,0.006-0.005,0.01-0.007c0.067-0.047,0.104-0.074,0.108-0.077l-1.92,3.611
	c0,0,0.001-0.001,0.001-0.001l-0.001,0.001c0,0,3.772-2.689,4.812-5.889c0.104-0.319,0.181-0.643,0.224-0.969
	C73.526,28.968,73.465,28.999,73.404,29.028z M26.428,28.939c0.288,2.186,2.075,4.239,3.44,5.519
	c0.888,0.833,1.597,1.339,1.597,1.339l0,0l0,0l-1.92-3.611c0.003,0.001,0.007,0.004,0.012,0.009c0.001,0,0.002,0.001,0.003,0.002
	c0.007,0.005,0.018,0.013,0.031,0.022c0.001,0.001,0.001,0.001,0.002,0.001c0.033,0.024,0.082,0.06,0.146,0.103
	c0.037,0.025,0.08,0.054,0.127,0.085c0.001,0.001,0.004,0.003,0.005,0.004c0.01,0.007,0.022,0.014,0.033,0.021
	c0.041,0.027,0.085,0.056,0.132,0.086c0.011,0.008,0.022,0.014,0.034,0.022c0.023,0.014,0.048,0.03,0.073,0.046
	c0.006,0.004,0.013,0.008,0.019,0.012c0.019,0.012,0.036,0.023,0.056,0.035c0.007,0.004,0.014,0.009,0.021,0.013
	c0.09,0.056,0.188,0.116,0.293,0.179c0.012,0.007,0.024,0.014,0.037,0.022c0.001,0.001,0.003,0.001,0.004,0.002
	c0.073,0.043,0.149,0.087,0.229,0.133c0.001,0.001,0.002,0.001,0.003,0.002c1.026,0.586,2.612,1.357,4.507,1.826
	c0.001,0,0.001,0,0.002,0.001c0.007,0.001,0.013,0.003,0.02,0.005c0.042,0.011,0.086,0.02,0.129,0.03
	c0.028,0.006,0.056,0.013,0.083,0.019c0.143,0.033,0.286,0.065,0.432,0.094c0,0-0.001,0-0.001-0.001c0.001,0,0.001,0,0.002,0
	c-5.824-3.318-5.621-11.647-3.719-14.017c-0.586,0-1.108,0.076-1.575,0.212c-3.796,1.104-3.849,6.154-3.849,6.154l0,0
	c0,0,0,0.001,0,0.001s0.406-0.813,2.438-2.777c-0.006,0.03-0.011,0.059-0.017,0.09c-0.017,0.088-0.034,0.176-0.049,0.262
	c-0.01,0.056-0.019,0.111-0.028,0.167c-0.01,0.064-0.02,0.127-0.03,0.19c-0.008,0.054-0.016,0.108-0.023,0.161
	c-0.009,0.07-0.018,0.138-0.026,0.207c-0.005,0.042-0.01,0.085-0.015,0.127c-0.011,0.108-0.021,0.214-0.029,0.319
	c-0.002,0.025-0.003,0.05-0.005,0.075c-0.006,0.085-0.011,0.17-0.015,0.253c-0.001,0.03-0.002,0.059-0.004,0.089
	c-0.003,0.08-0.005,0.16-0.006,0.238c0,0.025-0.001,0.049-0.001,0.074c0,0.019-0.001,0.038-0.001,0.057
	c0,0.052,0.001,0.103,0.002,0.155c0.001,0.055,0.002,0.11,0.004,0.164c0.001,0.037,0.002,0.075,0.004,0.112
	c0,0.012,0.001,0.024,0.002,0.036c0.002,0.044,0.004,0.088,0.007,0.131c0.001,0.009,0.001,0.017,0.001,0.026
	c0.001,0.032,0.004,0.064,0.007,0.095c0.003,0.03,0.005,0.062,0.008,0.093c0,0.001,0,0.002,0,0.003
	c0.004,0.043,0.009,0.084,0.013,0.126c0.002,0.018,0.003,0.036,0.005,0.053c0.001,0.012,0.003,0.023,0.004,0.034
	c0.005,0.045,0.01,0.09,0.016,0.134c0,0.003,0.001,0.006,0.001,0.009c0.004,0.032,0.008,0.064,0.013,0.095
	c0.004,0.026,0.008,0.052,0.012,0.078c0.005,0.034,0.011,0.066,0.016,0.099c0.002,0.013,0.004,0.026,0.007,0.039
	c0.005,0.033,0.011,0.066,0.017,0.099c0.002,0.01,0.004,0.021,0.006,0.031c0.006,0.033,0.013,0.065,0.02,0.097
	c0.001,0.005,0.002,0.011,0.003,0.016c0.002,0.008,0.003,0.015,0.005,0.023c0.012,0.056,0.024,0.111,0.036,0.165
	c0.001,0.004,0.002,0.008,0.003,0.012c0.001,0.005,0.003,0.011,0.004,0.015c0.001,0.003,0.002,0.006,0.002,0.01
	c0.015,0.063,0.03,0.124,0.046,0.184c0,0,0,0.001,0,0.001c0.002,0.008,0.004,0.015,0.006,0.022c0.018,0.066,0.037,0.131,0.056,0.194
	c0.007,0.023,0.013,0.046,0.02,0.067c0.003,0.007,0.004,0.013,0.007,0.02c0.001,0.004,0.003,0.008,0.004,0.012
	c0.005,0.015,0.009,0.028,0.014,0.042c0.008,0.023,0.015,0.045,0.023,0.068c0.006,0.019,0.013,0.038,0.019,0.056
	c0.008,0.025,0.017,0.047,0.026,0.07c0.005,0.015,0.011,0.03,0.016,0.044c0.004,0.01,0.007,0.02,0.011,0.03
	c0.01,0.026,0.02,0.049,0.029,0.074c0.013,0.032,0.025,0.064,0.038,0.094c0.004,0.011,0.009,0.022,0.013,0.032
	c0.009,0.021,0.017,0.041,0.027,0.062c0.003,0.007,0.006,0.013,0.009,0.02c0.002,0.005,0.004,0.01,0.007,0.015
	c0.003,0.006,0.006,0.013,0.008,0.019c0.017,0.036,0.033,0.072,0.05,0.106c0.014,0.029,0.028,0.057,0.041,0.084
	c0.008,0.016,0.016,0.033,0.024,0.049c0.016,0.031,0.032,0.061,0.048,0.09c0.001,0.003,0.003,0.005,0.004,0.008
	c0.001,0.001,0.001,0.002,0.002,0.003c0.118,0.219,0.227,0.381,0.305,0.486c0.008,0.011,0.015,0.02,0.022,0.029
	c0.023,0.031,0.044,0.056,0.059,0.075c0.003,0.004,0.008,0.01,0.011,0.014c0.015,0.017,0.024,0.028,0.028,0.032
	c-0.009-0.005-0.062-0.035-0.152-0.084c-0.017-0.009-0.037-0.02-0.058-0.032c-0.032-0.017-0.066-0.037-0.105-0.057
	c-0.009-0.005-0.02-0.01-0.029-0.016c-0.096-0.052-0.21-0.114-0.341-0.183c-0.016-0.009-0.032-0.017-0.049-0.026
	c-0.008-0.004-0.016-0.009-0.024-0.013c-0.16-0.085-0.34-0.181-0.538-0.285c-0.1-0.053-0.203-0.107-0.312-0.163
	c-0.072-0.037-0.146-0.076-0.221-0.115c-0.017-0.009-0.036-0.019-0.053-0.028c-0.052-0.026-0.104-0.053-0.156-0.08
	c-0.427-0.22-0.895-0.457-1.379-0.694c-0.003-0.001-0.005-0.003-0.008-0.004c-0.052-0.026-0.106-0.051-0.158-0.077
	c-0.037-0.018-0.074-0.036-0.11-0.054C26.492,28.97,26.461,28.955,26.428,28.939z M50.008,47.514l-5.547-10.446
	c0,0,4.757-1.823,5.547-4.522c0.789,2.699,5.547,4.522,5.547,4.522L50.008,47.514z M50.008,40.717l3.94-3.386
	c0,0-2.328-0.203-3.94-2.438V40.717z M72.762,34.962c0,0,0.017-0.001,0.02-0.003L72.2,45.948
	c-1.686,5.324-5.436,10.045-10.586,15.836v-8.059L50.008,73.809L38.401,53.725v8.059c-5.153-5.794-8.904-10.517-10.589-15.846
	l-0.593-10.987c2.477,1.644,8.281,3.035,8.281,3.035s0,0-2.024-1.898c2.658,0.506,6.834,1.224,6.834,1.224c0.001,0,0.001,0,0.001,0
	l9.697,13.038l9.697-13.038c0,0,4.177-0.717,6.834-1.224c-2.024,1.898-2.024,1.898-2.024,1.898s5.753-1.379,8.246-3.013
	C72.761,34.968,72.761,34.966,72.762,34.962z M38.126,52.313l-2.539-12.951c0,0-2.494-0.321-3.329-0.795
	C36.953,50.316,38.126,52.313,38.126,52.313z M54.928,49.144l-4.92,5.456l-4.921-5.456c0.107,0.154,3.558,5.095,3.858,7.994
	c0.102,2.032,1.063,10.361,1.063,10.361s0.961-8.328,1.062-10.361C51.37,54.238,54.82,49.297,54.928,49.144z M67.757,38.567
	c-0.835,0.475-3.329,0.795-3.329,0.795l-2.54,12.951C61.888,52.313,63.061,50.316,67.757,38.567z"></path>
</svg></svg></g></svg>